<svg width="32" height="32" viewBox="0 0 32 32" fill="none" xmlns="http://www.w3.org/2000/svg">
<g clip-path="url(#clip0_437_261)">
<rect width="32" height="32" fill="#155159"/>
<path d="M31.7866 0.212891H0.212891V31.7866H31.7866V0.212891Z" stroke="#F4EFE6" stroke-width="1.9" stroke-miterlimit="10"/>
<path d="M30.7455 1.25586H1.25586V30.7455H30.7455V1.25586Z" stroke="#F4EFE6" stroke-width="1.13" stroke-miterlimit="10"/>
<path d="M21.0905 11.0887C22.0394 11.4992 23.2643 10.7769 23.8297 9.47344C24.395 8.17002 24.0765 6.78135 23.1275 6.37305C22.1785 5.96475 20.9536 6.68488 20.3905 7.98831C19.8274 9.29173 20.1438 10.6804 21.0905 11.0887ZM20.6238 8.09599C21.1129 6.97428 22.174 6.34164 22.9929 6.69835C23.8117 7.05505 24.0832 8.25527 23.5964 9.39044C23.1095 10.5256 22.0484 11.1448 21.2296 10.7903C20.4107 10.4359 20.137 9.21769 20.6238 8.09599Z" fill="#F4EFE6" stroke="#F4EFE6" stroke-width="0.3" stroke-miterlimit="10"/>
<path d="M22.9395 5.9895C23.2614 5.81824 23.5236 5.55295 23.691 5.22898C24.1397 4.33162 23.9512 3.71244 24.0948 3.65859C24.2384 3.60475 24.355 3.9637 24.2631 4.70851C24.1845 5.33891 23.6439 6.29685 23.6439 6.29685L22.9395 6.25422V5.9895Z" fill="#F4EFE6" stroke="#F4EFE6" stroke-width="0.3" stroke-miterlimit="10"/>
<path d="M8.07924 9.60391C8.7029 11.0464 10.1342 11.8159 11.2739 11.3224C11.3803 11.2778 11.4818 11.2221 11.5767 11.1564C12.151 10.7593 11.9401 10.8849 12.5907 11.7284C12.7164 11.8922 13.681 13.3616 14.9777 15.356L8.59971 27.9326C8.59971 27.9326 8.56381 28.0537 8.72758 28.0537C8.76916 28.0542 8.81005 28.0432 8.84571 28.0218C8.88136 28.0004 8.91037 27.9695 8.92949 27.9326C9.1314 27.5871 13.0574 21.6959 16.1219 17.1059C18.9867 21.5254 22.6278 27.1721 23.0764 27.9326C23.0989 27.9716 23.1318 28.0036 23.1714 28.025C23.211 28.0464 23.2558 28.0564 23.3008 28.0537C23.4399 28.0537 23.4107 27.9326 23.4107 27.9326L17.2772 15.3672L19.745 11.6858C20.3956 10.84 20.1555 10.7638 20.7276 11.1608C20.8229 11.2266 20.9243 11.2829 21.0304 11.3291C21.8313 11.6746 22.7758 11.3986 23.4802 10.7054C23.6849 10.4987 23.8621 10.2665 24.0074 10.0145C24.0866 9.88235 24.1571 9.74521 24.2183 9.60391C24.456 9.06506 24.548 8.47328 24.4853 7.8877C24.4713 7.77435 24.4503 7.66197 24.4225 7.55119C24.3985 7.44172 24.3654 7.33442 24.3238 7.23038C24.2845 7.12958 24.2388 7.03141 24.1869 6.9365C24.1113 6.79761 24.0186 6.66874 23.911 6.55287C23.8773 6.51474 23.8392 6.4766 23.8033 6.44295C23.6506 6.29975 23.4746 6.18367 23.2828 6.09971C22.9927 5.97693 22.6764 5.92909 22.363 5.96061C22.3261 5.96289 22.2894 5.96738 22.2531 5.97407L22.1723 5.98753C22.123 5.98753 22.0714 6.00773 22.0243 6.02119C21.5135 6.16805 21.0557 6.45849 20.7051 6.85798C20.6648 6.9006 20.6289 6.94323 20.593 6.9881C20.5627 7.02244 20.5342 7.05839 20.5077 7.09578L20.4382 7.19225C20.4257 7.20779 20.4144 7.22429 20.4045 7.2416C20.3715 7.2859 20.3416 7.33237 20.3148 7.38069C20.2789 7.43678 20.243 7.49959 20.2116 7.56017L19.4286 8.89275L17.3625 12.4239L16.9564 12.5607L16.4898 12.7155C16.4255 12.7361 16.366 12.7696 16.3151 12.8139C16.2642 12.8583 16.2228 12.9126 16.1937 12.9735L16.1555 13.0498L16.1174 12.9735C16.0882 12.9126 16.0469 12.8583 15.9959 12.8139C15.945 12.7696 15.8856 12.7361 15.8212 12.7155L14.9486 12.4261L12.8756 8.89275C12.8445 8.84109 12.824 8.78366 12.8155 8.72392C12.8071 8.66417 12.8107 8.60332 12.8263 8.54502L12.8958 8.26684C12.9197 8.17242 12.9052 8.07238 12.8555 7.98866L12.842 7.96622C12.8123 7.91819 12.772 7.87763 12.7242 7.84767C12.6763 7.81772 12.6222 7.79917 12.5661 7.79348H12.4651C12.3914 7.78755 12.3201 7.7641 12.2573 7.72507C12.1945 7.68605 12.1419 7.63259 12.1039 7.56914C11.4197 6.28591 10.0983 5.62859 9.02371 6.09971C7.88182 6.59326 7.4623 8.1614 8.07924 9.60391ZM20.3799 9.08793V9.07222C20.3799 8.98922 20.3956 8.90621 20.4068 8.82096V8.77609C20.4202 8.69084 20.4382 8.60559 20.4606 8.5181C20.505 8.37378 20.5598 8.23283 20.6244 8.09634C21.1134 6.97463 22.1746 6.34199 22.9934 6.6987C23.0612 6.72769 23.1265 6.76221 23.1886 6.80189C23.2482 6.84387 23.3044 6.89037 23.3569 6.94098C23.4088 6.99188 23.4568 7.04662 23.5004 7.10475C23.7576 7.47987 23.8766 7.93265 23.8369 8.38574C23.8369 8.38574 23.8369 8.38574 23.8369 8.3992C23.8369 8.48894 23.8212 8.57867 23.8055 8.66841C23.7915 8.76367 23.772 8.85804 23.7472 8.95108C23.7089 9.0985 23.6586 9.24256 23.5969 9.38181C23.1101 10.5035 22.0512 11.1362 21.2301 10.7817C21.0275 10.6935 20.8524 10.5525 20.7231 10.3734C20.6398 10.2557 20.5727 10.1275 20.5234 9.99202C20.4144 9.70373 20.3677 9.39558 20.3866 9.08793H20.3799ZM16.1667 14.8512C16.2383 14.8508 16.3083 14.8716 16.368 14.911C16.4277 14.9504 16.4743 15.0067 16.502 15.0727C16.5297 15.1386 16.5372 15.2113 16.5235 15.2815C16.5098 15.3517 16.4756 15.4163 16.4252 15.467C16.3747 15.5178 16.3104 15.5524 16.2403 15.5665C16.1701 15.5806 16.0974 15.5736 16.0313 15.5463C15.9651 15.5191 15.9086 15.4728 15.8688 15.4133C15.829 15.3539 15.8078 15.284 15.8078 15.2124C15.8078 15.117 15.8455 15.0255 15.9128 14.9578C15.98 14.8902 16.0713 14.8518 16.1667 14.8512ZM8.67598 7.31563C8.80881 7.03748 9.03624 6.81562 9.3176 6.68972C9.51775 6.61096 9.73334 6.5793 9.94769 6.59719C10.162 6.61509 10.3694 6.68206 10.5537 6.79292C11.0604 7.08857 11.4549 7.54377 11.6754 8.08737C12.1622 9.20907 11.8998 10.4183 11.0719 10.7795C10.2441 11.1406 9.20094 10.5013 8.71412 9.37284C8.56013 9.05287 8.477 8.70344 8.47042 8.3484C8.46384 7.99336 8.53396 7.64109 8.67598 7.31563Z" fill="#F4EFE6" stroke="#F4EFE6" stroke-width="0.3" stroke-miterlimit="10"/>
</g>
<defs>
<clipPath id="clip0_437_261">
<rect width="32" height="32" fill="white"/>
</clipPath>
</defs>
</svg>
