<svg width="16" height="29" viewBox="0 0 16 29" fill="none" xmlns="http://www.w3.org/2000/svg">
<g clip-path="url(#clip0_25_522)">
<path fill-rule="evenodd" clip-rule="evenodd" d="M10.3177 0.986387C8.7286 1.23436 7.61241 1.77168 6.69671 2.72941C5.92577 3.53578 5.44471 4.48185 5.17248 5.72685C5.06967 6.19712 5.05654 6.48133 5.03529 8.69649L5.01178 11.1461H2.83597H0.660156V13.6361V16.1262L2.8262 16.1404L4.99224 16.1548L5.00626 22.5457L5.02028 28.9365H7.61379H10.2073V22.532V16.1274H12.3596C13.5433 16.1274 14.5127 16.1212 14.5138 16.1137C14.6583 15.1168 15.1497 11.2157 15.1344 11.1871C15.1223 11.1645 14.0071 11.1461 12.6562 11.1461H10.2001L10.2186 9.10703C10.2368 7.11275 10.2401 7.06086 10.3677 6.74397C10.6262 6.10204 11.1701 5.72275 11.9821 5.61819C12.2049 5.58951 13.0518 5.56526 13.864 5.56433L15.3408 5.56263L15.3264 3.33199L15.312 1.10134L14.5946 1.03669C13.4183 0.930662 10.8671 0.900664 10.3177 0.986387Z" fill="#333333"/>
</g>
<defs>
<clipPath id="clip0_25_522">
<rect width="14.6806" height="28" fill="white" transform="translate(0.660156 0.936523)"/>
</clipPath>
</defs>
</svg>
