<svg width="29" height="29" viewBox="0 0 29 29" fill="none" xmlns="http://www.w3.org/2000/svg">
<path fill-rule="evenodd" clip-rule="evenodd" d="M10.0871 4.01245C8.48625 4.0507 6.20061 4.16519 5.15098 4.25969C3.21316 4.4341 2.47851 4.64651 1.75014 5.24276C1.38927 5.53818 1.00904 6.00094 0.808796 6.38831C0.675117 6.64692 0.418004 7.6447 0.334679 8.22797C-0.11156 11.3528 -0.11156 16.2172 0.334679 19.342C0.418004 19.9253 0.675117 20.9231 0.808796 21.1817C1.14917 21.8402 1.81664 22.4832 2.48764 22.7991C3.66188 23.3519 6.79667 23.5588 13.9988 23.5588C19.8623 23.5588 22.7925 23.43 24.5165 23.0965C25.534 22.8996 26.244 22.4823 26.8048 21.7517C27.1834 21.2584 27.2729 21.067 27.4488 20.3745C28.1837 17.4826 28.1837 10.0874 27.4488 7.19548C27.2729 6.50299 27.1834 6.31163 26.8048 5.81833C26.2441 5.08772 25.5342 4.67054 24.5165 4.47347C23.7872 4.33227 22.2149 4.18667 20.4561 4.09757C19.2081 4.03431 11.7385 3.97302 10.0871 4.01245ZM15.123 11.9014C16.893 12.9203 18.3413 13.7679 18.3413 13.785C18.3413 13.8088 14.2648 16.1732 11.5858 17.7032L11.2668 17.8854V13.785V9.6846L11.5858 9.86677C11.7613 9.96698 13.353 10.8826 15.123 11.9014Z" fill="#333333"/>
</svg>
