<svg width="24" height="29" viewBox="0 0 24 29" fill="none" xmlns="http://www.w3.org/2000/svg">
<g clip-path="url(#clip0_25_524)">
<path fill-rule="evenodd" clip-rule="evenodd" d="M9.88938 4.31299L9.88741 7.68946L7.56703 5.32666L5.24672 2.96386L3.9126 4.31774C3.17887 5.06241 2.57849 5.69923 2.57849 5.73296C2.57849 5.76662 3.65612 6.81356 4.97318 8.05946L7.36787 10.3248L3.952 10.3418L0.536133 10.3589V12.3018V14.2448L4.01143 14.2455L7.48672 14.2463L5.83966 15.8402C4.93378 16.7167 3.82201 17.7981 3.36907 18.243L2.54554 19.0519L3.89633 20.4036L5.24718 21.7554L8.60672 18.3953L11.9663 15.0353L15.3265 18.3906L18.6867 21.7459L20.0702 20.4017L21.4538 19.0575L20.6302 18.2458C20.1773 17.7994 19.0655 16.7171 18.1597 15.8406L16.5126 14.2471L19.9879 14.2459L23.4632 14.2448V12.3018V10.3589L20.0473 10.3418L16.6315 10.3248L19.0261 8.05946C20.3432 6.81356 21.4208 5.77084 21.4208 5.74225C21.4208 5.71365 20.8179 5.0738 20.081 4.32037L18.7411 2.95048L17.0022 4.72706C16.0457 5.70417 14.9888 6.78523 14.6535 7.12946L14.0437 7.75535L14.0429 4.34594L14.042 0.936523H11.9667H9.89143L9.88938 4.31299ZM9.95731 24.3577V28.9365H11.9997H14.042V24.3577V19.7789H11.9997H9.95731V24.3577Z" fill="#333333"/>
</g>
<defs>
<clipPath id="clip0_25_524">
<rect width="22.9271" height="28" fill="white" transform="translate(0.536133 0.936523)"/>
</clipPath>
</defs>
</svg>
