<svg width="30" height="29" viewBox="0 0 30 29" fill="none" xmlns="http://www.w3.org/2000/svg">
<g clip-path="url(#clip0_25_523)">
<path fill-rule="evenodd" clip-rule="evenodd" d="M9.75374 0.904498C7.94045 0.980601 6.69376 1.21073 5.64437 1.66311C4.66229 2.08652 4.07914 2.47666 3.35506 3.19469C2.37319 4.16837 1.76134 5.26258 1.37719 6.73191C1.03835 8.02798 0.962746 9.52019 0.961921 14.9251C0.961096 20.2403 1.03346 21.7504 1.35113 23.0462C2.14312 26.2769 4.50964 28.3316 7.98609 28.807C8.98495 28.9436 11.0758 29.0007 15.0655 29.0002C18.7756 28.9998 20.9151 28.9473 21.878 28.833C23.8456 28.5995 25.3888 27.9202 26.5999 26.7544C27.9707 25.4349 28.6957 23.8543 28.9611 21.6062C29.065 20.7256 29.064 8.99049 28.9599 8.1616C28.7486 6.47864 28.2438 5.09387 27.455 4.0331C27.0629 3.50593 26.23 2.70525 25.7057 2.3514C24.5223 1.55297 23.1004 1.10966 21.2241 0.954152C20.3397 0.880853 11.2547 0.841537 9.75374 0.904498ZM21.649 3.55938C23.216 3.79159 24.0957 4.183 24.9412 5.0242C25.4896 5.56974 25.7959 6.05517 26.0624 6.80098C26.5155 8.06856 26.5561 8.7393 26.5562 14.9526C26.5562 18.5321 26.5361 20.2517 26.4874 20.8326C26.3275 22.739 25.9483 23.7677 25.0542 24.7212C24.1294 25.7075 22.9663 26.1995 21.1691 26.3647C20.1958 26.4541 12.1522 26.4979 10.3006 26.4238C9.46428 26.3904 8.58755 26.3362 8.35237 26.3035C7.31249 26.1589 6.30472 25.7923 5.6816 25.3319C5.28778 25.0411 4.66344 24.3636 4.42985 23.9737C3.9707 23.2073 3.6923 22.1243 3.60129 20.7502C3.43594 18.2543 3.48967 9.68488 3.6796 8.2674C3.87667 6.79586 4.3306 5.80822 5.19402 4.97229C6.14333 4.05322 7.38524 3.60595 9.31026 3.48976C9.7235 3.4648 12.536 3.45061 15.5604 3.4582C20.2512 3.46997 21.1458 3.48481 21.649 3.55938ZM21.8137 5.90967C21.1895 6.22157 20.8964 6.70332 20.895 7.41926C20.894 7.93752 21.0176 8.24452 21.3681 8.59502C21.718 8.9449 22.0256 9.0689 22.5438 9.0689C22.914 9.0689 23.0333 9.04454 23.2962 8.91549C23.8527 8.64219 24.1672 8.16231 24.2089 7.52258C24.2459 6.95687 24.1228 6.62485 23.731 6.2335C23.3668 5.86964 23.0513 5.74213 22.5154 5.74213C22.2171 5.74213 22.0867 5.77325 21.8137 5.90967ZM13.7488 7.81045C12.3037 8.07131 11.0258 8.75025 9.94444 9.83159C8.51772 11.2583 7.82635 12.9209 7.82635 14.9251C7.82635 16.1326 8.05312 17.1275 8.55676 18.1291C10.0937 21.186 13.481 22.7538 16.7778 21.9344C18.0717 21.6128 19.0755 21.053 20.0461 20.1117C20.9209 19.2633 21.5095 18.3392 21.8785 17.2346C22.1443 16.4393 22.2414 15.8209 22.2414 14.9251C22.2414 14.0346 22.1443 13.4108 21.8844 12.6337C21.5307 11.5755 21.0194 10.7391 20.2235 9.91698C19.1369 8.79435 17.7786 8.06719 16.2818 7.80671C15.6707 7.70036 14.3478 7.70229 13.7488 7.81045ZM15.9267 10.3286C18.4483 10.8128 20.1183 13.2865 19.6337 15.8195C19.3396 17.3567 18.2115 18.7187 16.771 19.2757C16.0677 19.5476 15.6587 19.613 14.8455 19.5837C14.2686 19.5628 14.0405 19.5291 13.6633 19.4087C11.9944 18.8762 10.7823 17.5339 10.4386 15.8375C10.3063 15.1843 10.3578 14.1684 10.5546 13.5504C11.076 11.9135 12.4554 10.661 14.097 10.334C14.5866 10.2364 15.4335 10.2339 15.9267 10.3286Z" fill="#333333"/>
</g>
<defs>
<clipPath id="clip0_25_523">
<rect width="28.0766" height="28.1272" fill="white" transform="translate(0.961914 0.873047)"/>
</clipPath>
</defs>
</svg>
