<svg width="254" height="245" viewBox="0 0 254 245" fill="none" xmlns="http://www.w3.org/2000/svg">
<g clip-path="url(#clip0_25_525)">
<path d="M91.0898 46.5259H73.3907H71.1483H53.4602H51.2177H31.2871V47.3507H51.2177H53.4602H71.1483H73.3907H91.0898H93.3213H113.263V46.5259H93.3213H91.0898Z" fill="#F4EFE6" stroke="#F4EFE6" stroke-width="0.138097" stroke-miterlimit="10" stroke-linecap="round" stroke-linejoin="round"/>
<path d="M203.68 46.5259H201.383H183.257H180.96H162.834H160.537H140.114V47.3507H160.537H162.834H180.96H183.257H201.383H203.68H224.103V46.5259H203.68Z" fill="#F4EFE6" stroke="#F4EFE6" stroke-width="0.139778" stroke-miterlimit="10" stroke-linecap="round" stroke-linejoin="round"/>
<path d="M107.426 137.769L105.566 141.173C105.555 141.195 105.544 141.216 105.523 141.248C105.512 141.279 105.49 141.311 105.468 141.343C105.446 141.374 105.413 141.406 105.391 141.427C105.358 141.448 105.315 141.459 105.271 141.459C105.194 141.459 105.14 141.459 105.118 141.459C105.096 141.459 105.085 141.448 105.085 141.448C105.085 141.448 105.151 141.343 105.205 141.248C105.26 141.152 105.326 141.036 105.413 140.877C105.501 140.719 105.588 140.539 105.698 140.338C105.807 140.137 105.916 139.926 106.037 139.704C106.157 139.482 106.266 139.27 106.387 139.059C106.496 138.847 106.605 138.646 106.704 138.467L107.065 137.779H106.157C105.993 137.779 105.862 137.769 105.763 137.748C105.665 137.726 105.61 137.695 105.61 137.652C105.61 137.61 105.665 137.578 105.763 137.568C105.862 137.557 105.993 137.547 106.157 137.547H107.185C107.524 136.902 107.874 136.235 108.235 135.559C108.596 134.882 108.957 134.195 109.318 133.518C109.679 132.831 110.04 132.154 110.401 131.477C110.762 130.8 111.112 130.134 111.451 129.489H111.44C111.44 129.479 111.451 129.468 111.473 129.447C111.484 129.436 111.517 129.426 111.55 129.405C111.583 129.394 111.637 129.383 111.692 129.373C111.747 129.362 111.834 129.362 111.922 129.362C112.108 129.362 112.25 129.373 112.326 129.405C112.403 129.436 112.458 129.468 112.48 129.5H112.469C112.502 129.574 112.578 129.701 112.677 129.912C112.786 130.113 112.917 130.367 113.07 130.673C113.234 130.98 113.409 131.319 113.617 131.71C113.814 132.101 114.033 132.513 114.274 132.957C114.503 133.402 114.744 133.856 114.996 134.332C115.247 134.808 115.499 135.284 115.75 135.76C116.625 137.42 117.599 139.281 118.671 141.332C118.693 141.374 118.682 141.438 118.627 141.459C118.594 141.47 118.562 141.48 118.507 141.501C118.387 141.533 118.223 141.544 118.026 141.554C118.004 141.554 117.993 141.554 117.971 141.544C117.905 141.512 117.829 141.438 117.73 141.322C117.632 141.195 117.511 141.036 117.391 140.846C117.271 140.655 117.151 140.454 117.019 140.222C116.888 139.989 116.757 139.767 116.636 139.535C116.516 139.302 116.396 139.08 116.286 138.858C116.177 138.636 116.079 138.456 116.002 138.287C115.947 138.17 115.893 138.075 115.86 137.991C115.827 137.906 115.794 137.853 115.772 137.811L107.426 137.769ZM107.557 137.525L115.641 137.547C115.324 136.933 114.996 136.299 114.656 135.643C114.317 134.998 113.978 134.343 113.639 133.677C113.3 133.01 112.961 132.355 112.622 131.699C112.283 131.044 111.955 130.399 111.626 129.775L107.557 137.525Z" fill="#F4EFE6" stroke="#F4EFE6" stroke-width="0.400819" stroke-miterlimit="10"/>
<path d="M122.621 141.343C122.621 141.385 122.566 141.417 122.468 141.438C122.369 141.459 122.238 141.48 122.074 141.48C121.888 141.48 121.746 141.47 121.669 141.438C121.593 141.417 121.549 141.374 121.549 141.343V129.5C121.549 129.468 121.604 129.436 121.702 129.405C121.811 129.373 121.932 129.362 122.085 129.362C122.26 129.362 122.391 129.373 122.479 129.405C122.566 129.426 122.621 129.468 122.621 129.5V135.76L123.069 135.432L131.755 129.394C131.766 129.383 131.777 129.383 131.788 129.383C131.875 129.383 131.941 129.383 131.984 129.383C132.039 129.383 132.072 129.394 132.094 129.394C132.116 129.394 132.16 129.426 132.138 129.436L122.916 135.918C123.704 136.32 124.469 136.711 125.224 137.102C125.979 137.494 126.734 137.885 127.489 138.276C128.243 138.667 128.998 139.059 129.753 139.45C130.508 139.841 131.284 140.232 132.061 140.634C132.061 140.634 132.345 140.772 132.313 140.983C132.302 141.036 132.302 141.078 132.28 141.131C132.258 141.184 132.225 141.226 132.203 141.258C132.181 141.29 132.127 141.364 132.061 141.406C131.995 141.448 131.886 141.522 131.722 141.47C131.689 141.459 131.591 141.427 131.405 141.353C131.23 141.279 131 141.173 130.716 141.036C130.431 140.899 130.114 140.74 129.742 140.56C129.37 140.38 128.976 140.18 128.561 139.968C128.145 139.757 127.718 139.545 127.27 139.323C126.821 139.101 126.384 138.879 125.946 138.657C125.509 138.435 125.093 138.223 124.688 138.012C124.284 137.8 123.912 137.61 123.573 137.441L122.599 136.944V141.343H122.621Z" fill="#F4EFE6" stroke="#F4EFE6" stroke-width="0.400819" stroke-miterlimit="10"/>
<path d="M137.343 137.769C137.31 137.769 137.288 137.79 137.266 137.811L135.429 141.174C135.418 141.195 135.407 141.216 135.385 141.248C135.374 141.279 135.352 141.311 135.33 141.343C135.308 141.374 135.275 141.406 135.254 141.427C135.221 141.448 135.177 141.459 135.133 141.459C135.057 141.459 135.002 141.459 134.98 141.459C134.958 141.459 134.947 141.448 134.947 141.448C134.947 141.448 135.013 141.343 135.068 141.248C135.122 141.152 135.188 141.036 135.264 140.877C135.352 140.719 135.44 140.539 135.549 140.338C135.658 140.137 135.768 139.926 135.888 139.704C136.008 139.482 136.118 139.27 136.238 139.059C136.347 138.847 136.457 138.646 136.555 138.467L136.862 137.896C136.894 137.843 136.851 137.779 136.785 137.779H136.019C135.855 137.779 135.724 137.769 135.625 137.748C135.527 137.726 135.472 137.695 135.472 137.652C135.472 137.61 135.527 137.578 135.625 137.568C135.724 137.557 135.855 137.547 136.019 137.547H136.993C137.026 137.547 137.058 137.525 137.069 137.504C137.409 136.87 137.748 136.225 138.098 135.559C138.459 134.882 138.82 134.195 139.181 133.518C139.542 132.831 139.903 132.154 140.264 131.477C140.625 130.8 140.975 130.134 141.314 129.489H141.303C141.303 129.479 141.314 129.468 141.336 129.447C141.346 129.436 141.379 129.426 141.412 129.405C141.445 129.394 141.5 129.383 141.554 129.373C141.609 129.362 141.697 129.362 141.784 129.362C141.97 129.362 142.112 129.373 142.189 129.405C142.265 129.436 142.32 129.468 142.342 129.5H142.331C142.364 129.574 142.44 129.701 142.539 129.912C142.648 130.113 142.779 130.367 142.933 130.673C143.097 130.98 143.272 131.319 143.48 131.71C143.676 132.101 143.895 132.513 144.136 132.957C144.366 133.402 144.606 133.856 144.858 134.332C145.109 134.808 145.361 135.284 145.613 135.76C146.488 137.42 147.461 139.281 148.544 141.343C148.566 141.385 148.544 141.438 148.511 141.448C148.479 141.459 148.435 141.48 148.391 141.491C148.271 141.522 148.107 141.544 147.91 141.544C147.899 141.544 147.888 141.544 147.877 141.533C147.811 141.501 147.724 141.427 147.636 141.311C147.538 141.184 147.418 141.025 147.297 140.835C147.177 140.645 147.057 140.444 146.925 140.211C146.794 139.979 146.663 139.757 146.542 139.524C146.422 139.291 146.302 139.069 146.192 138.847C146.083 138.625 145.985 138.445 145.908 138.276C145.853 138.16 145.799 138.065 145.766 137.98C145.744 137.927 145.722 137.885 145.7 137.843C145.689 137.811 145.656 137.8 145.624 137.8L137.343 137.769ZM137.562 137.525L145.372 137.547C145.438 137.547 145.47 137.483 145.449 137.43C145.153 136.849 144.836 136.257 144.519 135.643C144.18 134.998 143.841 134.343 143.501 133.677C143.162 133.01 142.823 132.355 142.484 131.699C142.167 131.096 141.861 130.494 141.565 129.923C141.532 129.859 141.445 129.859 141.412 129.923L137.485 137.409C137.452 137.462 137.496 137.525 137.562 137.525Z" fill="#F4EFE6" stroke="#F4EFE6" stroke-width="0.400819" stroke-miterlimit="10"/>
<path d="M78.7831 114.485C78.1815 114.485 77.7877 114.443 77.5908 114.369C77.3939 114.295 77.3064 114.2 77.3064 114.094V80.7752H66.6519C66.2035 80.7752 65.8315 80.7435 65.5362 80.6695C65.2408 80.606 65.0986 80.5109 65.0986 80.4051C65.0986 80.2676 65.2408 80.1831 65.5362 80.1408C65.8315 80.0985 66.2035 80.0879 66.6519 80.0879H91.0456C91.6253 80.0879 92.0191 80.1196 92.2489 80.1831C92.4786 80.2465 92.588 80.3417 92.588 80.4791C92.588 80.532 92.5442 80.5743 92.4458 80.606C92.3473 80.6483 92.227 80.6695 92.0848 80.7012C91.9426 80.7223 91.7676 80.7435 91.5816 80.7541C91.3956 80.7646 91.2206 80.7752 91.0565 80.7752H80.3474V114.094C80.3474 114.21 80.2052 114.295 79.9208 114.369C79.6145 114.443 79.2426 114.485 78.7831 114.485Z" fill="#F4EFE6" stroke="#F4EFE6" stroke-width="0.400819" stroke-miterlimit="10"/>
<path d="M127.876 100.559C127.876 101.405 127.821 102.282 127.701 103.213C127.581 104.133 127.384 105.053 127.088 105.952C126.596 107.294 125.907 108.489 124.988 109.557C124.08 110.625 123.008 111.524 121.794 112.275C120.58 113.015 119.234 113.586 117.779 113.977C116.325 114.368 114.815 114.559 113.273 114.559C111.708 114.559 110.144 114.358 108.591 113.967C107.037 113.565 105.583 112.994 104.248 112.243C102.903 111.492 101.732 110.583 100.704 109.515C99.6866 108.447 98.9209 107.242 98.4286 105.899C98.1333 104.989 97.9254 104.08 97.8051 103.16C97.6848 102.24 97.6191 101.352 97.6191 100.506V80.3307C97.6191 80.2144 97.7613 80.1298 98.0567 80.0558C98.352 79.9818 98.724 79.9395 99.1725 79.9395C99.7632 79.9395 100.157 79.9818 100.365 80.0558C100.573 80.1298 100.671 80.225 100.671 80.3307V100.39C100.671 101.331 100.715 102.261 100.791 103.181C100.879 104.101 101.054 104.958 101.316 105.751C101.754 107.051 102.388 108.214 103.242 109.229C104.084 110.245 105.058 111.101 106.141 111.799C107.223 112.497 108.383 113.015 109.608 113.375C110.833 113.734 112.058 113.914 113.273 113.914C114.082 113.914 114.913 113.829 115.778 113.66C116.642 113.491 117.506 113.248 118.359 112.93C119.212 112.613 120.044 112.211 120.853 111.736C121.663 111.26 122.407 110.72 123.085 110.118C123.763 109.515 124.376 108.838 124.901 108.087C125.437 107.347 125.841 106.533 126.137 105.666C126.421 104.873 126.596 104.016 126.684 103.086C126.771 102.155 126.804 101.225 126.804 100.273V80.2144C126.804 80.0981 126.87 80.024 127.001 79.9923C127.132 79.95 127.274 79.9395 127.438 79.9395C127.635 79.9395 127.745 79.9818 127.799 80.0663C127.843 80.1509 127.865 80.2567 127.865 80.3836V100.559H127.876Z" fill="#F4EFE6" stroke="#F4EFE6" stroke-width="0.400819" stroke-miterlimit="10"/>
<path d="M137.054 80.5109C137.054 80.4263 137.119 80.3522 137.262 80.2888C137.404 80.2254 137.568 80.1831 137.776 80.1619C137.973 80.1408 138.191 80.1196 138.41 80.109C138.629 80.0985 138.826 80.0879 139.001 80.0879H146.56C147.478 80.0879 148.441 80.109 149.447 80.1513C150.443 80.1936 151.438 80.2782 152.434 80.4051C153.418 80.532 154.381 80.7012 155.311 80.9127C156.24 81.1347 157.105 81.4096 157.914 81.7586H157.892C159.599 82.4882 161.119 83.3976 162.454 84.4867C163.788 85.5758 164.915 86.7812 165.834 88.103C166.753 89.4248 167.464 90.8628 167.945 92.3855C168.437 93.9187 168.678 95.4942 168.678 97.1121C168.678 98.9202 168.372 100.686 167.759 102.388C167.147 104.101 166.282 105.677 165.167 107.115C164.04 108.564 162.683 109.833 161.075 110.922C159.467 112.021 157.684 112.857 155.704 113.417C155.081 113.608 154.414 113.756 153.703 113.861C153.003 113.978 152.281 114.062 151.537 114.126C150.804 114.189 150.06 114.231 149.316 114.253C148.572 114.274 147.85 114.295 147.139 114.295H139.001C138.618 114.295 138.301 114.284 138.049 114.263C137.798 114.242 137.601 114.21 137.448 114.157C137.305 114.105 137.196 114.041 137.141 113.946C137.087 113.851 137.054 113.734 137.054 113.586V80.5109ZM140.117 113.65H147.949C148.933 113.65 149.962 113.608 151.034 113.512C152.106 113.417 153.156 113.248 154.195 113.005C155.901 112.55 157.455 111.81 158.866 110.805C160.277 109.79 161.48 108.585 162.487 107.179C163.493 105.772 164.27 104.207 164.827 102.494C165.374 100.781 165.659 98.9942 165.659 97.1332C165.659 95.103 165.353 93.1891 164.729 91.4021C164.105 89.6151 163.23 88.029 162.115 86.6438C160.988 85.2586 159.642 84.0954 158.067 83.1649C156.492 82.2344 154.753 81.6 152.849 81.2722C151.679 81.0607 150.53 80.9232 149.393 80.8704C148.255 80.8175 147.128 80.7858 146.002 80.7858H140.117V113.65Z" fill="#F4EFE6" stroke="#F4EFE6" stroke-width="0.400819" stroke-miterlimit="10"/>
<path d="M175.669 80.3307C175.669 80.2144 175.811 80.1298 176.096 80.0558C176.38 79.9818 176.752 79.9395 177.211 79.9395C177.529 79.9395 177.791 79.95 177.977 79.9712C178.174 79.9923 178.316 80.0135 178.415 80.0558C178.513 80.0981 178.59 80.1404 178.612 80.1827C178.644 80.2355 178.655 80.2778 178.655 80.3307V114.094C178.655 114.21 178.513 114.294 178.229 114.368C177.944 114.442 177.572 114.485 177.113 114.485C176.796 114.485 176.533 114.474 176.347 114.453C176.15 114.432 176.008 114.411 175.91 114.368C175.811 114.326 175.735 114.294 175.713 114.252C175.68 114.21 175.669 114.157 175.669 114.094V80.3307Z" fill="#F4EFE6" stroke="#F4EFE6" stroke-width="0.400819" stroke-miterlimit="10"/>
<path d="M185.37 97.1116C185.37 95.5043 185.6 93.9499 186.059 92.4696C186.519 90.9892 187.164 89.604 188.006 88.314C188.838 87.0239 189.844 85.8502 191.026 84.8034C192.207 83.746 193.509 82.8472 194.953 82.0965C196.386 81.3457 197.939 80.7641 199.591 80.3623C201.242 79.9499 202.96 79.749 204.743 79.749C206.548 79.749 208.287 79.9499 209.95 80.3623C211.612 80.7747 213.155 81.3457 214.599 82.0965C216.032 82.8366 217.333 83.7354 218.504 84.7928C219.674 85.8502 220.67 87.0134 221.501 88.3034C222.332 89.5934 222.978 90.9786 223.437 92.4696C223.897 93.9605 224.116 95.5043 224.116 97.1221C224.116 98.7188 223.886 100.263 223.426 101.743C222.967 103.223 222.311 104.609 221.479 105.888C220.637 107.167 219.631 108.341 218.449 109.399C217.268 110.456 215.966 111.365 214.522 112.116C213.089 112.867 211.547 113.448 209.895 113.861C208.243 114.273 206.537 114.485 204.754 114.485C202.982 114.485 201.275 114.273 199.634 113.861C197.994 113.448 196.451 112.856 195.018 112.095C193.585 111.334 192.273 110.424 191.091 109.367C189.91 108.309 188.903 107.136 188.05 105.846C187.208 104.556 186.552 103.181 186.081 101.711C185.6 100.231 185.37 98.7082 185.37 97.1116ZM188.892 97.1116C188.892 98.6342 189.089 100.104 189.472 101.521C189.855 102.938 190.391 104.26 191.091 105.486C191.78 106.723 192.612 107.844 193.585 108.859C194.548 109.874 195.62 110.752 196.801 111.482C197.972 112.211 199.23 112.782 200.575 113.184C201.91 113.586 203.31 113.787 204.754 113.787C206.22 113.787 207.62 113.586 208.965 113.195C210.311 112.793 211.569 112.232 212.75 111.513C213.921 110.784 214.993 109.917 215.955 108.902C216.918 107.886 217.738 106.766 218.427 105.528C219.116 104.291 219.642 102.97 220.013 101.553C220.385 100.136 220.571 98.6554 220.571 97.1221C220.571 95.5677 220.385 94.0874 220.013 92.6493C219.642 91.2218 219.116 89.8789 218.449 88.6418C217.771 87.4046 216.962 86.2732 216.01 85.2687C215.058 84.2535 213.986 83.3865 212.816 82.6674C211.645 81.9378 210.376 81.388 209.02 80.9967C207.664 80.6055 206.241 80.4152 204.765 80.4152C203.299 80.4152 201.899 80.6161 200.553 81.0179C199.208 81.4197 197.95 81.9801 196.768 82.7097C195.598 83.4394 194.526 84.3064 193.552 85.3215C192.579 86.3366 191.758 87.4681 191.069 88.7052C190.38 89.9424 189.855 91.2747 189.472 92.7022C189.078 94.1191 188.892 95.5889 188.892 97.1116Z" fill="#F4EFE6" stroke="#F4EFE6" stroke-width="0.400819" stroke-miterlimit="10"/>
<path d="M31.2969 108.553C31.2422 108.49 31.275 108.437 31.3734 108.384C31.4719 108.331 31.625 108.299 31.8329 108.268C32.0407 108.247 32.2704 108.225 32.5111 108.225C32.7627 108.215 33.0033 108.225 33.233 108.247C33.4627 108.268 33.6706 108.299 33.8347 108.342C34.0097 108.384 34.1081 108.447 34.1519 108.521C34.9176 109.463 35.8146 110.277 36.8428 110.964C37.8711 111.651 38.954 112.222 40.0917 112.667C41.2293 113.111 42.3998 113.438 43.5812 113.65C44.7626 113.861 45.9002 113.967 46.9722 113.967C47.8145 113.967 48.6896 113.925 49.5975 113.851C50.5055 113.766 51.3915 113.629 52.2557 113.417C53.1199 113.206 53.9403 112.92 54.7169 112.54C55.4936 112.17 56.1718 111.694 56.7516 111.123C57.3313 110.552 57.8017 109.864 58.1408 109.061C58.4799 108.257 58.6549 107.316 58.6549 106.238C58.6549 105.296 58.5236 104.461 58.2721 103.742C58.0205 103.023 57.6704 102.389 57.2329 101.849C56.7953 101.299 56.2812 100.845 55.6905 100.464C55.0998 100.083 54.4653 99.7662 53.7981 99.5019C53.1199 99.2375 52.4307 99.0155 51.6978 98.8463C50.9758 98.6771 50.2539 98.5396 49.5538 98.4233C49.1381 98.3599 48.7224 98.307 48.2739 98.2541C47.8364 98.2013 47.366 98.1484 46.8847 98.0849C45.9221 97.9686 44.9157 97.81 43.8547 97.588C42.7936 97.3659 41.7653 97.091 40.748 96.742C39.7307 96.3931 38.7681 95.9807 37.8602 95.4943C36.9522 95.0079 36.1537 94.4475 35.4536 93.8025C34.7645 93.1575 34.2175 92.4278 33.8128 91.6031C33.4081 90.7783 33.2112 89.8478 33.2112 88.8221C33.2112 87.7858 33.3971 86.8448 33.7581 86.0094C34.1191 85.1741 34.6223 84.4233 35.2458 83.7571C35.8693 83.091 36.6131 82.52 37.4664 82.0336C38.3196 81.5472 39.2275 81.1559 40.2011 80.8387C41.1746 80.5321 42.181 80.2994 43.2202 80.1408C44.2703 79.9822 45.2986 79.9082 46.305 79.9082C47.0707 79.9082 47.9239 79.9716 48.8646 80.088C49.8054 80.2043 50.7461 80.3735 51.7087 80.5849C52.6714 80.807 53.6012 81.0502 54.5091 81.3357C55.417 81.6212 56.2156 81.9384 56.9266 82.2768C57.6267 82.6152 58.1955 82.9747 58.633 83.3342C59.0597 83.7043 59.2784 84.0638 59.2784 84.4445C59.2784 84.5291 59.1253 84.6031 58.8081 84.6559C58.4908 84.7088 58.1517 84.7405 57.7798 84.7405C57.2876 84.7405 56.9703 84.7194 56.8062 84.6665C56.6422 84.6136 56.5328 84.5502 56.4453 84.4762C55.7233 83.7994 54.9576 83.2073 54.1481 82.7209C53.3386 82.2345 52.4963 81.8221 51.6322 81.5049C50.768 81.1877 49.8929 80.9444 48.9959 80.7858C48.1099 80.6272 47.2238 80.5532 46.3487 80.5532C45.5939 80.5532 44.8063 80.6061 43.9969 80.7224C43.1874 80.8387 42.4107 81.0079 41.645 81.2511C40.8902 81.4943 40.1792 81.8115 39.5119 82.2133C38.8447 82.6151 38.2649 83.091 37.7727 83.6514C37.2804 84.2118 36.8866 84.8674 36.6131 85.6182C36.3287 86.3689 36.2084 87.2148 36.2303 88.1771C36.2522 89.0547 36.4272 89.8372 36.7553 90.5245C37.0835 91.2013 37.5211 91.804 38.068 92.3327C38.6149 92.8508 39.2603 93.2949 39.9932 93.6756C40.7261 94.0457 41.4919 94.3629 42.3013 94.6167C43.1108 94.8704 43.9312 95.0713 44.7845 95.23C45.6267 95.3886 46.4472 95.5049 47.2457 95.5895L49.5757 95.8644C50.5383 96.0019 51.5009 96.1816 52.4745 96.4142C53.448 96.6469 54.3778 96.9324 55.2639 97.2919C56.1499 97.6408 56.9922 98.0638 57.7689 98.5502C58.5565 99.0366 59.2347 99.597 59.8035 100.242C60.3833 100.887 60.8317 101.617 61.1708 102.42C61.499 103.224 61.674 104.133 61.674 105.138C61.674 106.343 61.4553 107.411 61.0177 108.352C60.5801 109.293 59.9895 110.118 59.2347 110.827C58.4799 111.535 57.6048 112.127 56.6093 112.624C55.6139 113.111 54.5528 113.512 53.4261 113.809C52.2994 114.105 51.1509 114.327 49.9695 114.464C48.7881 114.602 47.6395 114.665 46.5237 114.665C45.0579 114.665 43.614 114.549 42.1919 114.316C40.7699 114.083 39.4025 113.713 38.0899 113.216C36.7772 112.719 35.5521 112.085 34.3926 111.324C33.2549 110.531 32.2157 109.621 31.2969 108.553Z" fill="#F4EFE6" stroke="#F4EFE6" stroke-width="0.10574" stroke-miterlimit="10"/>
<path d="M59.4984 184.643C59.5203 184.686 59.5859 184.686 59.6078 184.643C62.0253 180.054 64.4209 175.507 66.8055 170.982C69.2121 166.424 71.6296 161.814 74.0799 157.172C74.1018 157.14 74.1127 157.098 74.1455 157.045C74.1783 156.992 74.2002 156.939 74.244 156.886C74.2877 156.834 74.3424 156.791 74.419 156.76C74.4955 156.717 74.594 156.707 74.7143 156.707C74.9003 156.707 75.0316 156.717 75.13 156.728C75.2284 156.749 75.2941 156.76 75.3269 156.781C75.3597 156.802 75.3816 156.834 75.3816 156.876C75.3816 156.918 75.2503 157.235 74.9878 157.732C74.7253 158.229 74.3643 158.906 73.9158 159.752C73.4564 160.609 72.9204 161.613 72.3078 162.766C71.6952 163.918 71.0279 165.166 70.3278 166.488C69.6168 167.809 68.8949 169.195 68.1291 170.622C67.3744 172.05 66.6196 173.467 65.8867 174.862C65.1428 176.258 64.4318 177.612 63.7427 178.912C63.0535 180.213 62.43 181.408 61.8612 182.486L59.5421 186.874C59.4656 187.033 59.3343 187.16 59.1812 187.244C59.1702 187.255 59.1483 187.266 59.1265 187.276C58.9952 187.35 58.8202 187.403 58.6233 187.435H58.6123C58.2842 187.435 58.0216 187.403 57.8138 187.329C57.606 187.255 57.4856 187.181 57.4419 187.086L55.1557 182.729L53.4054 179.377C53.3836 179.335 53.3179 179.335 53.2961 179.377L51.6443 182.507L49.2268 187.086C49.2268 187.096 49.2159 187.096 49.2159 187.107C49.1502 187.17 49.0518 187.234 48.9205 187.308C48.7892 187.382 48.6142 187.424 48.4173 187.445H48.4064C48.0782 187.445 47.8157 187.414 47.6079 187.34C47.4 187.266 47.2797 187.192 47.2359 187.096L44.9497 182.74C44.3809 181.661 43.7574 180.467 43.0682 179.155C42.39 177.844 41.679 176.48 40.9352 175.074C40.1913 173.667 39.4475 172.24 38.6927 170.812C37.9379 169.374 37.205 167.989 36.5049 166.657C35.8048 165.325 35.1485 164.066 34.5359 162.892C33.9234 161.719 33.3873 160.704 32.9279 159.837C32.4685 158.97 32.1184 158.293 31.8559 157.796C31.6371 157.383 31.5168 157.151 31.473 157.087C31.4621 157.066 31.4621 157.045 31.473 157.034C31.5168 156.96 31.659 156.886 31.9106 156.823C32.2169 156.738 32.556 156.696 32.9279 156.696C33.1029 156.696 33.2889 156.707 33.5077 156.717C33.7264 156.738 33.9234 156.749 34.1203 156.77C34.3172 156.791 34.4812 156.812 34.6125 156.834C34.7438 156.855 34.8203 156.876 34.8313 156.897L49.2924 184.664C49.3143 184.707 49.3799 184.707 49.4018 184.664L52.7819 178.246C52.7929 178.225 52.7929 178.204 52.7819 178.193C52.1912 177.083 51.5896 175.93 50.9661 174.735C50.3316 173.53 49.6972 172.325 49.0737 171.119C48.4392 169.914 47.8266 168.729 47.2141 167.566C46.6015 166.403 46.0327 165.293 45.4857 164.257C44.9388 163.22 44.4356 162.258 43.9762 161.38C43.5167 160.503 43.112 159.741 42.7729 159.096C42.4338 158.451 42.1712 157.954 41.9743 157.595C41.8212 157.309 41.7337 157.14 41.7009 157.087C41.6899 157.077 41.6899 157.056 41.6899 157.045C41.7118 156.96 41.865 156.886 42.1384 156.812C42.4447 156.728 42.7838 156.686 43.1557 156.686C43.3308 156.686 43.5167 156.696 43.7355 156.707C43.9543 156.728 44.1512 156.738 44.3481 156.76C44.545 156.781 44.7091 156.802 44.8403 156.823C44.9716 156.844 45.0482 156.865 45.0591 156.886L54.4228 174.915C54.4446 174.957 54.5103 174.957 54.5321 174.915C56.0745 171.976 57.606 169.047 59.1483 166.139C60.7017 163.199 62.2769 160.207 63.8739 157.183C63.8958 157.151 63.9067 157.109 63.9396 157.056C63.9724 157.003 63.9943 156.95 64.038 156.897C64.0818 156.844 64.1365 156.802 64.213 156.77C64.2896 156.728 64.3881 156.717 64.5084 156.717C64.6943 156.717 64.8256 156.728 64.9241 156.738C65.0225 156.76 65.0881 156.77 65.121 156.791C65.1538 156.812 65.2194 156.855 65.2194 156.897C65.2194 156.939 64.0599 159.086 63.5567 160.016C63.0644 160.947 62.4847 162.036 61.8284 163.284C61.172 164.531 60.461 165.864 59.7062 167.281C58.9514 168.698 58.1748 170.157 57.3762 171.658C56.5777 173.16 55.8011 174.619 55.0463 176.057C55.0353 176.078 55.0353 176.099 55.0463 176.11L59.4984 184.643Z" fill="#F4EFE6" stroke="#F4EFE6" stroke-width="0.400819" stroke-miterlimit="10"/>
<path d="M78.7178 178.013H76.4426C76.0378 178.013 75.6987 177.982 75.4471 177.918C75.1955 177.855 75.0752 177.781 75.0752 177.675C75.0752 177.569 75.1955 177.495 75.4471 177.463C75.6987 177.432 76.0269 177.411 76.4426 177.411H78.7178V157.193C78.7178 157.119 78.7725 157.045 78.8929 156.992C79.0132 156.939 79.1554 156.897 79.3413 156.876C79.5164 156.855 79.7023 156.833 79.9102 156.823C80.1071 156.812 80.293 156.802 80.4462 156.802H100.76C101.132 156.802 101.46 156.833 101.722 156.907C101.985 156.982 102.127 157.056 102.127 157.151C102.127 157.246 101.996 157.32 101.722 157.362C101.46 157.404 101.132 157.415 100.76 157.415H81.4307V177.4H101.361C101.733 177.4 102.061 177.432 102.324 177.495C102.586 177.559 102.729 177.643 102.729 177.728C102.729 177.823 102.597 177.897 102.324 177.939C102.061 177.982 101.733 177.992 101.361 177.992H81.4307V186.589H100.76C100.913 186.589 101.066 186.599 101.23 186.61C101.394 186.62 101.547 186.642 101.678 186.663C101.81 186.684 101.919 186.716 102.007 186.747C102.094 186.779 102.138 186.821 102.138 186.864C102.138 186.98 102.039 187.075 101.843 187.117C101.646 187.17 101.285 187.191 100.771 187.191H80.4571C80.118 187.191 79.8336 187.181 79.6148 187.17C79.396 187.149 79.221 187.128 79.0898 187.075C78.9585 187.033 78.871 186.969 78.8163 186.885C78.7616 186.8 78.7397 186.695 78.7397 186.568V178.013H78.7178Z" fill="#F4EFE6" stroke="#F4EFE6" stroke-width="0.400819" stroke-miterlimit="10"/>
<path d="M149.295 187.361C148.759 187.361 148.409 187.329 148.234 187.266C148.059 187.202 147.982 187.118 147.982 187.023V157.447H138.52C138.126 157.447 137.787 157.415 137.525 157.352C137.262 157.288 137.131 157.214 137.131 157.109C137.131 156.992 137.262 156.908 137.525 156.876C137.787 156.844 138.115 156.823 138.52 156.823H160.168C160.682 156.823 161.032 156.855 161.24 156.908C161.437 156.961 161.535 157.056 161.535 157.172C161.535 157.214 161.492 157.257 161.404 157.288C161.317 157.32 161.207 157.352 161.076 157.373C160.945 157.394 160.792 157.415 160.628 157.426C160.463 157.437 160.31 157.447 160.157 157.447H150.651V187.023C150.651 187.118 150.531 187.202 150.279 187.266C150.039 187.329 149.711 187.361 149.295 187.361Z" fill="#F4EFE6" stroke="#F4EFE6" stroke-width="0.400819" stroke-miterlimit="10"/>
<path d="M166.515 178.013H164.239C163.835 178.013 163.496 177.982 163.244 177.918C162.992 177.855 162.872 177.781 162.872 177.675C162.872 177.569 162.992 177.495 163.244 177.463C163.496 177.432 163.824 177.411 164.239 177.411H166.515V157.193C166.515 157.119 166.569 157.045 166.69 156.992C166.81 156.939 166.952 156.897 167.138 156.876C167.313 156.855 167.499 156.833 167.707 156.823C167.904 156.812 168.09 156.802 168.243 156.802H188.557C188.928 156.802 189.257 156.833 189.519 156.907C189.782 156.982 189.924 157.056 189.924 157.151C189.924 157.246 189.793 157.32 189.519 157.362C189.257 157.404 188.928 157.415 188.557 157.415H169.228V177.4H189.158C189.53 177.4 189.858 177.432 190.121 177.495C190.383 177.559 190.525 177.643 190.525 177.728C190.525 177.823 190.394 177.897 190.121 177.939C189.858 177.982 189.53 177.992 189.158 177.992H169.228V186.589H188.557C188.71 186.589 188.863 186.599 189.027 186.61C189.191 186.62 189.344 186.642 189.475 186.663C189.607 186.684 189.716 186.716 189.804 186.747C189.891 186.779 189.935 186.821 189.935 186.864C189.935 186.98 189.836 187.075 189.639 187.117C189.443 187.17 189.082 187.191 188.567 187.191H168.254C167.915 187.191 167.63 187.181 167.412 187.17C167.193 187.149 167.018 187.128 166.887 187.075C166.755 187.033 166.668 186.969 166.613 186.885C166.558 186.8 166.537 186.695 166.537 186.568V178.013H166.515Z" fill="#F4EFE6" stroke="#F4EFE6" stroke-width="0.400819" stroke-miterlimit="10"/>
<path d="M223.965 187.286C223.997 187.318 223.877 187.308 223.713 187.308C223.549 187.308 223.341 187.308 223.078 187.297C222.827 187.286 222.532 187.286 222.214 187.276C221.897 187.265 221.58 187.255 221.284 187.255C220.978 187.244 220.705 187.244 220.453 187.234C220.256 187.234 220.092 187.223 219.972 187.223C219.906 187.223 219.841 187.202 219.786 187.17C217.543 185.7 215.563 184.4 213.846 183.268C212.107 182.126 210.597 181.132 209.306 180.286C208.016 179.441 206.922 178.732 206.036 178.151C205.15 177.569 204.417 177.093 203.837 176.712C203.257 176.332 202.82 176.046 202.492 175.835C202.174 175.634 201.934 175.486 201.781 175.401C201.627 175.317 201.54 175.264 201.507 175.243C201.474 175.222 201.332 175.116 201.474 174.999C201.507 174.978 201.573 174.957 201.693 174.947C201.802 174.936 202.01 174.925 202.295 174.925C202.885 174.925 203.399 174.925 203.837 174.936C204.275 174.947 204.668 174.947 205.007 174.947C205.347 174.947 205.653 174.947 205.926 174.957C206.2 174.968 206.462 174.968 206.725 174.968C207.436 174.968 208.191 174.947 209.011 174.915C209.832 174.873 210.608 174.809 211.352 174.703C212.391 174.513 213.321 174.196 214.141 173.731C214.962 173.265 215.662 172.673 216.242 171.954C216.821 171.235 217.259 170.389 217.554 169.416C217.861 168.444 218.003 167.365 218.003 166.181C218.003 165.134 217.872 164.151 217.609 163.22C217.347 162.29 216.964 161.465 216.471 160.725C215.979 159.995 215.367 159.371 214.645 158.864C213.923 158.356 213.102 157.996 212.172 157.796C211.45 157.637 210.75 157.542 210.061 157.51C209.372 157.468 208.694 157.457 208.016 157.457H199.155V187.001C199.155 187.096 199.024 187.181 198.761 187.244C198.499 187.308 198.171 187.339 197.766 187.339C197.317 187.339 196.989 187.308 196.771 187.234C196.552 187.16 196.442 187.086 196.442 186.99V157.182C196.442 157.108 196.508 157.034 196.628 156.981C196.749 156.928 196.902 156.886 197.077 156.865C197.252 156.844 197.438 156.823 197.646 156.812C197.843 156.802 198.018 156.791 198.171 156.791H208.486C210.203 156.791 211.811 156.971 213.288 157.33C214.776 157.69 216.067 158.25 217.161 159.001C218.254 159.752 219.108 160.735 219.731 161.909C220.355 163.093 220.661 164.51 220.661 166.16C220.661 167.333 220.497 168.391 220.18 169.311C219.852 170.231 219.403 171.045 218.812 171.753C218.222 172.462 217.532 173.054 216.734 173.54C215.935 174.027 215.049 174.428 214.098 174.735C213.146 175.042 212.129 175.264 211.046 175.412C209.974 175.56 208.88 175.623 207.764 175.623C207.556 175.623 207.392 175.623 207.272 175.623C207.152 175.623 207.02 175.623 206.9 175.623C206.78 175.623 206.659 175.623 206.528 175.613C206.408 175.602 206.233 175.592 206.036 175.57L223.965 187.286Z" fill="#F4EFE6" stroke="#F4EFE6" stroke-width="0.400819" stroke-miterlimit="10"/>
<path d="M106.951 182.391C106.907 182.338 106.929 182.286 107.016 182.243C107.115 182.201 107.246 182.169 107.432 182.137C107.618 182.116 107.826 182.106 108.055 182.095C108.285 182.085 108.504 182.095 108.712 182.116C108.92 182.137 109.106 182.159 109.27 182.201C109.423 182.243 109.521 182.296 109.554 182.36C110.254 183.216 111.075 183.967 112.015 184.591C112.956 185.215 113.941 185.733 114.98 186.145C116.019 186.547 117.08 186.854 118.163 187.044C119.246 187.234 120.274 187.329 121.259 187.329C122.035 187.329 122.834 187.298 123.654 187.224C124.475 187.15 125.284 187.012 126.072 186.822C126.859 186.631 127.614 186.367 128.314 186.029C129.025 185.69 129.638 185.257 130.174 184.739C130.71 184.221 131.125 183.586 131.432 182.857C131.738 182.116 131.891 181.26 131.891 180.276C131.891 179.42 131.771 178.659 131.541 178.003C131.311 177.347 130.994 176.766 130.589 176.269C130.196 175.772 129.725 175.349 129.189 175.011C128.653 174.662 128.074 174.376 127.461 174.133C126.848 173.89 126.214 173.689 125.547 173.541C124.89 173.393 124.234 173.266 123.589 173.16C123.217 173.107 122.823 173.054 122.418 173.012C122.013 172.97 121.587 172.917 121.149 172.864C120.274 172.758 119.355 172.61 118.382 172.42C117.419 172.219 116.467 171.965 115.549 171.648C114.63 171.331 113.744 170.95 112.912 170.517C112.081 170.073 111.348 169.565 110.724 168.973C110.09 168.381 109.598 167.715 109.226 166.964C108.854 166.213 108.668 165.367 108.668 164.426C108.668 163.474 108.832 162.618 109.171 161.857C109.499 161.095 109.959 160.408 110.528 159.805C111.096 159.202 111.775 158.674 112.551 158.24C113.328 157.796 114.159 157.437 115.045 157.151C115.931 156.866 116.85 156.654 117.802 156.517C118.754 156.379 119.694 156.305 120.613 156.305C121.313 156.305 122.09 156.358 122.943 156.464C123.796 156.57 124.661 156.728 125.536 156.918C126.411 157.119 127.264 157.341 128.084 157.606C128.905 157.87 129.638 158.156 130.283 158.462C130.929 158.769 131.443 159.097 131.836 159.425C132.23 159.763 132.427 160.091 132.427 160.429C132.427 160.503 132.285 160.577 132.001 160.619C131.716 160.672 131.399 160.693 131.06 160.693C130.611 160.693 130.316 160.672 130.174 160.63C130.032 160.588 129.922 160.524 129.846 160.461C129.189 159.837 128.489 159.308 127.745 158.854C127.001 158.409 126.236 158.039 125.448 157.743C124.661 157.447 123.862 157.236 123.042 157.088C122.232 156.95 121.423 156.876 120.635 156.876C119.946 156.876 119.235 156.929 118.491 157.024C117.758 157.13 117.036 157.289 116.347 157.511C115.658 157.733 115.013 158.018 114.4 158.388C113.787 158.748 113.262 159.192 112.814 159.699C112.365 160.218 112.015 160.81 111.753 161.497C111.49 162.184 111.381 162.956 111.403 163.823C111.425 164.627 111.589 165.335 111.884 165.959C112.179 166.583 112.584 167.133 113.087 167.609C113.59 168.085 114.17 168.486 114.837 168.825C115.505 169.163 116.205 169.449 116.938 169.681C117.671 169.914 118.425 170.104 119.202 170.242C119.979 170.379 120.723 170.496 121.445 170.57L123.567 170.823C124.442 170.95 125.328 171.119 126.203 171.32C127.089 171.532 127.931 171.796 128.752 172.113C129.561 172.431 130.327 172.822 131.038 173.255C131.749 173.699 132.372 174.207 132.898 174.799C133.423 175.391 133.838 176.047 134.145 176.787C134.451 177.517 134.604 178.352 134.604 179.261C134.604 180.361 134.407 181.334 134.002 182.19C133.609 183.047 133.062 183.798 132.383 184.443C131.694 185.088 130.907 185.637 129.988 186.082C129.08 186.526 128.106 186.885 127.089 187.16C126.061 187.435 125.022 187.625 123.939 187.752C122.867 187.879 121.816 187.943 120.799 187.943C119.465 187.943 118.152 187.837 116.85 187.625C115.549 187.414 114.302 187.076 113.109 186.621C111.917 186.166 110.79 185.595 109.729 184.887C108.745 184.199 107.793 183.364 106.951 182.391Z" fill="#F4EFE6" stroke="#F4EFE6" stroke-width="0.193917" stroke-miterlimit="10"/>
<path d="M253.453 0H0V245H253.453V0Z" stroke="#F4EFE6" stroke-width="3.31489" stroke-miterlimit="10"/>
<path d="M245.084 8.08936H8.35645V236.922H245.084V8.08936Z" stroke="#F4EFE6" stroke-width="1.96677" stroke-miterlimit="10"/>
<path d="M134.526 39.039C136.046 39.6734 138.004 38.5526 138.912 36.5435C139.809 34.5239 139.306 32.3774 137.796 31.7429C136.287 31.1085 134.318 32.2293 133.421 34.2384C132.502 36.2474 133.005 38.4045 134.526 39.039ZM133.782 34.397C134.559 32.6523 136.254 31.6795 137.567 32.2293C138.879 32.7792 139.317 34.6402 138.529 36.3849C137.753 38.1296 136.057 39.1024 134.745 38.5526C133.432 37.9922 132.994 36.1417 133.782 34.397Z" fill="#F4EFE6" stroke="#F4EFE6" stroke-width="0.10574" stroke-miterlimit="10"/>
<path d="M137.479 31.1506C137.479 31.1506 138.244 30.8016 138.682 29.9769C139.415 28.6023 139.097 27.6294 139.327 27.5554C139.513 27.5026 139.743 28.0207 139.59 29.1838C139.458 30.1566 138.605 31.637 138.605 31.637L137.479 31.5735V31.1506Z" fill="#F4EFE6" stroke="#F4EFE6" stroke-width="0.10574" stroke-miterlimit="10"/>
<path d="M113.722 36.7338C114.717 38.9649 117.003 40.1492 118.83 39.3879C119.005 39.3139 119.158 39.2293 119.311 39.1341C120.23 38.5208 119.891 38.7112 120.93 40.0223C121.127 40.2761 122.67 42.5495 124.748 45.6266L114.531 65.0722C114.531 65.0722 114.476 65.2625 114.728 65.2625C114.969 65.2625 115.056 65.0828 115.056 65.0722C115.384 64.5329 121.663 55.4287 126.564 48.3335C131.147 55.1643 136.967 63.8985 137.667 65.0722C137.667 65.0722 137.765 65.2625 138.017 65.2625C138.236 65.2625 138.192 65.0722 138.192 65.0722L128.412 45.6371C130.699 42.3275 132.35 39.9377 132.35 39.9377C133.39 38.6266 133.007 38.5103 133.926 39.1235C134.079 39.2187 134.243 39.3033 134.407 39.3773C135.687 39.9166 137.196 39.4831 138.323 38.4151C138.64 38.1084 138.936 37.7489 139.176 37.3577C139.297 37.1568 139.406 36.9453 139.515 36.7232C139.909 35.835 140.051 34.9045 139.942 34.0692C139.92 33.8894 139.887 33.7202 139.844 33.551C139.8 33.3819 139.756 33.2127 139.679 33.0541C139.614 32.8954 139.548 32.7474 139.461 32.5994C139.34 32.3773 139.187 32.1764 139.023 32.0072C138.968 31.9544 138.903 31.8909 138.848 31.838C138.607 31.616 138.323 31.4362 138.017 31.3093C137.546 31.1084 137.043 31.045 136.551 31.0979C136.496 31.0979 136.431 31.1084 136.376 31.119C136.332 31.119 136.288 31.1296 136.245 31.1402C136.168 31.1507 136.081 31.1719 136.015 31.193C135.249 31.3939 134.516 31.838 133.904 32.4831C133.838 32.5465 133.783 32.6099 133.729 32.684C133.674 32.7368 133.63 32.8003 133.587 32.8532C133.543 32.906 133.51 32.9483 133.477 33.0012C133.455 33.0223 133.444 33.0435 133.422 33.0752C133.368 33.1492 133.324 33.2127 133.28 33.2867C133.226 33.3713 133.16 33.4664 133.116 33.5722L131.869 35.6341L128.555 41.0903L127.909 41.3018L127.165 41.545C126.958 41.6084 126.783 41.7565 126.695 41.9468L126.629 42.0631L126.564 41.9468C126.465 41.7565 126.301 41.6084 126.093 41.545L124.693 41.1009L121.379 35.6341C121.28 35.4755 121.258 35.2852 121.302 35.1054L121.412 34.6719C121.444 34.5238 121.423 34.3758 121.346 34.2383L121.324 34.2066C121.226 34.048 121.051 33.9423 120.865 33.9317L120.701 33.9211C120.46 33.9 120.241 33.7731 120.121 33.5722C119.038 31.6054 116.927 30.6009 115.209 31.3093C113.393 32.0812 112.726 34.5027 113.722 36.7338ZM133.401 35.9408V35.9196C133.412 35.7927 133.422 35.6658 133.444 35.5284L133.455 35.4544C133.477 35.3275 133.51 35.19 133.543 35.0525C133.597 34.8305 133.685 34.6084 133.783 34.3864C134.56 32.6417 136.256 31.6689 137.568 32.2187C137.678 32.261 137.776 32.3139 137.875 32.3773C137.973 32.4408 138.061 32.5148 138.148 32.5888C138.236 32.6628 138.312 32.7474 138.378 32.8426C138.772 33.3501 138.957 34.048 138.914 34.8199C138.914 34.8305 138.914 34.8305 138.914 34.8411C138.903 34.9785 138.892 35.116 138.87 35.2534C138.848 35.4015 138.815 35.5495 138.772 35.687C138.717 35.909 138.629 36.1311 138.531 36.3531C137.754 38.0979 136.059 39.0707 134.746 38.5208C134.418 38.3834 134.144 38.1719 133.937 37.8864C133.805 37.7172 133.707 37.5057 133.619 37.2942C133.455 36.9136 133.368 36.4377 133.401 35.9408ZM126.651 44.8547C126.969 44.8547 127.231 45.1084 127.231 45.4151C127.231 45.7217 126.969 45.9755 126.651 45.9755C126.334 45.9755 126.072 45.7217 126.072 45.4151C126.072 45.0979 126.334 44.8547 126.651 44.8547ZM114.662 33.2021C114.892 32.7686 115.242 32.4196 115.691 32.2293C116.314 31.9755 117.014 32.0495 117.67 32.3879C118.403 32.7686 119.071 33.477 119.475 34.3864C120.252 36.1311 119.825 37.9921 118.513 38.542C117.2 39.0918 115.505 38.119 114.728 36.3743C114.214 35.2323 114.225 34.0374 114.662 33.2021Z" fill="#F4EFE6" stroke="#F4EFE6" stroke-width="0.10574" stroke-miterlimit="10"/>
<path d="M97.5979 129.246C97.565 129.204 97.5103 129.172 97.4556 129.172H97.1056H96.7774H65.9299H64.2672H49.4997C49.4122 129.172 49.3356 129.246 49.3356 129.331V129.987C49.3356 130.071 49.4122 130.145 49.4997 130.145H64.2672H65.9299H96.1539L92.9926 135.982H56.9819H54.3894H31.3194C31.2318 135.982 31.1553 136.056 31.1553 136.141V136.796C31.1553 136.881 31.2318 136.955 31.3194 136.955H54.3894H56.9819H92.4566L90.4657 140.635H64.836H63.1733H48.4058C48.3183 140.635 48.2418 140.709 48.2418 140.793V141.449C48.2418 141.533 48.3183 141.607 48.4058 141.607H63.1733H64.836H90.2141H90.8923C90.958 141.607 91.0127 141.576 91.0345 141.523L97.5979 129.416C97.6307 129.352 97.6307 129.299 97.5979 129.246Z" fill="#F4EFE6" stroke="#F4EFE6" stroke-width="0.10574" stroke-miterlimit="10"/>
<path d="M157.771 129.299C157.804 129.257 157.859 129.225 157.914 129.225H158.264H158.592H189.439H191.102H205.869C205.957 129.225 206.034 129.299 206.034 129.384V130.039C206.034 130.124 205.957 130.198 205.869 130.198H191.102H189.439H159.215L162.377 136.035H198.376H200.969H224.039C224.126 136.035 224.203 136.109 224.203 136.193V136.849C224.203 136.934 224.126 137.008 224.039 137.008H200.969H198.376H162.902L164.892 140.687H190.522H192.185H206.952C207.04 140.687 207.116 140.761 207.116 140.846V141.502C207.116 141.586 207.04 141.66 206.952 141.66H192.185H190.522H165.144H164.466C164.4 141.66 164.346 141.628 164.324 141.576L157.76 129.468C157.738 129.405 157.738 129.341 157.771 129.299Z" fill="#F4EFE6" stroke="#F4EFE6" stroke-width="0.10574" stroke-miterlimit="10"/>
<path d="M121.684 202.651C121.815 202.651 121.924 202.661 122.001 202.683C122.077 202.704 122.11 202.725 122.11 202.757V209.122H128.006V202.757C128.006 202.725 128.05 202.704 128.127 202.683C128.203 202.661 128.312 202.651 128.433 202.651C128.564 202.651 128.673 202.661 128.739 202.683C128.816 202.704 128.848 202.725 128.848 202.757V212.115C128.848 212.146 128.805 212.167 128.728 212.189C128.652 212.21 128.542 212.22 128.422 212.22C128.258 212.22 128.148 212.21 128.094 212.189C128.039 212.167 128.006 212.146 128.006 212.115V209.302H122.11V212.115C122.11 212.146 122.066 212.167 121.99 212.189C121.913 212.21 121.804 212.22 121.684 212.22C121.53 212.22 121.432 212.21 121.366 212.189C121.301 212.167 121.268 212.146 121.268 212.115V209.302H120.863C120.743 209.302 120.633 209.291 120.557 209.27C120.48 209.249 120.437 209.228 120.437 209.196C120.437 209.154 120.48 209.133 120.557 209.122C120.633 209.112 120.743 209.112 120.863 209.112H121.268V202.746C121.268 202.714 121.312 202.693 121.388 202.672C121.465 202.661 121.563 202.651 121.684 202.651Z" fill="#F4EFE6" stroke="#F4EFE6" stroke-width="0.416479" stroke-miterlimit="10"/>
<path d="M132.919 209.291L131.453 211.988C131.442 211.998 131.431 212.019 131.42 212.041C131.409 212.062 131.398 212.093 131.377 212.115C131.355 212.136 131.333 212.168 131.311 212.178C131.289 212.199 131.256 212.21 131.213 212.21C131.147 212.21 131.114 212.21 131.092 212.21C131.07 212.21 131.07 212.21 131.07 212.21C131.07 212.21 131.07 212.199 131.081 212.189C131.092 212.178 131.114 212.125 131.158 212.051C131.202 211.977 131.256 211.882 131.322 211.755C131.388 211.628 131.464 211.491 131.552 211.332C131.639 211.174 131.727 211.004 131.814 210.835C131.902 210.666 132 210.497 132.088 210.328C132.175 210.158 132.263 210 132.339 209.862L132.624 209.313H131.913C131.781 209.313 131.683 209.302 131.606 209.281C131.53 209.26 131.486 209.238 131.486 209.207C131.486 209.175 131.53 209.154 131.606 209.143C131.683 209.133 131.792 209.133 131.913 209.133H132.722C132.996 208.625 133.269 208.097 133.553 207.557C133.838 207.018 134.122 206.479 134.407 205.939C134.691 205.4 134.975 204.861 135.26 204.322C135.544 203.782 135.818 203.264 136.091 202.746H136.08C136.08 202.735 136.091 202.725 136.102 202.714C136.113 202.704 136.135 202.693 136.168 202.683C136.201 202.672 136.233 202.661 136.277 202.661C136.321 202.651 136.387 202.651 136.463 202.651C136.616 202.651 136.715 202.661 136.78 202.683C136.846 202.704 136.879 202.725 136.901 202.757H136.89C136.923 202.809 136.977 202.915 137.054 203.074C137.141 203.232 137.24 203.433 137.371 203.677C137.502 203.92 137.645 204.184 137.798 204.491C137.962 204.797 138.126 205.125 138.312 205.474C138.498 205.823 138.684 206.183 138.881 206.553C139.078 206.923 139.274 207.303 139.471 207.684C140.171 209.006 140.948 210.497 141.801 212.125C141.801 212.157 141.747 212.178 141.648 212.21C141.55 212.231 141.418 212.252 141.243 212.252C141.189 212.231 141.112 212.168 141.036 212.072C140.959 211.967 140.861 211.85 140.773 211.702C140.675 211.554 140.576 211.396 140.478 211.205C140.379 211.026 140.27 210.846 140.171 210.655C140.073 210.465 139.985 210.296 139.898 210.127C139.81 209.958 139.734 209.809 139.668 209.683C139.624 209.598 139.581 209.513 139.559 209.45C139.526 209.387 139.504 209.334 139.493 209.313L132.919 209.291ZM133.017 209.112L139.406 209.122C139.154 208.636 138.892 208.139 138.629 207.621C138.367 207.103 138.093 206.584 137.82 206.066C137.546 205.548 137.284 205.019 137.01 204.501C136.737 203.983 136.485 203.476 136.223 202.979L133.017 209.112Z" fill="#F4EFE6" stroke="#F4EFE6" stroke-width="0.416479" stroke-miterlimit="10"/>
<path d="M144.196 202.767C144.196 202.736 144.24 202.714 144.317 202.693C144.393 202.672 144.503 202.662 144.623 202.662C144.71 202.662 144.787 202.662 144.831 202.672C144.885 202.683 144.929 202.683 144.951 202.693C144.984 202.704 144.995 202.714 145.006 202.725C145.017 202.736 145.017 202.757 145.017 202.767V212.125C145.017 212.157 144.973 212.178 144.896 212.199C144.82 212.221 144.71 212.231 144.59 212.231C144.503 212.231 144.426 212.231 144.382 212.221C144.328 212.221 144.284 212.21 144.262 212.199C144.229 212.189 144.218 212.178 144.207 212.168C144.196 212.157 144.196 212.136 144.196 212.125V202.767Z" fill="#F4EFE6" stroke="#F4EFE6" stroke-width="0.416479" stroke-miterlimit="10"/>
<path d="M156.896 212.21C156.918 212.21 156.874 212.21 156.82 212.21C156.765 212.21 156.699 212.21 156.623 212.21C156.546 212.21 156.448 212.21 156.349 212.2C156.251 212.2 156.152 212.189 156.054 212.189C155.955 212.189 155.879 212.189 155.791 212.189C155.715 212.189 155.649 212.189 155.605 212.189C154.894 211.724 154.271 211.311 153.724 210.952C153.177 210.592 152.707 210.286 152.302 210.021C151.897 209.757 151.558 209.535 151.285 209.355C151.011 209.175 150.781 209.027 150.595 208.911C150.42 208.795 150.278 208.7 150.18 208.636C150.081 208.573 150.005 208.53 149.961 208.499C149.917 208.467 149.862 208.414 149.862 208.404C149.862 208.393 149.862 208.382 149.862 208.372C149.873 208.361 149.895 208.361 149.928 208.361C149.961 208.361 150.027 208.361 150.114 208.361C150.3 208.361 150.464 208.361 150.595 208.361C150.738 208.361 150.858 208.361 150.956 208.361C151.066 208.361 151.164 208.361 151.241 208.361C151.328 208.361 151.405 208.361 151.492 208.361C151.711 208.361 151.952 208.351 152.203 208.34C152.455 208.329 152.707 208.308 152.936 208.277C153.264 208.213 153.549 208.118 153.811 207.97C154.074 207.822 154.293 207.642 154.468 207.42C154.643 207.198 154.785 206.934 154.883 206.627C154.982 206.32 155.026 205.993 155.026 205.623C155.026 205.295 154.982 204.988 154.905 204.703C154.829 204.417 154.708 204.153 154.555 203.92C154.402 203.687 154.205 203.497 153.986 203.339C153.757 203.18 153.505 203.064 153.221 203.011C153.002 202.958 152.772 202.937 152.564 202.916C152.346 202.905 152.138 202.894 151.93 202.894H149.173V212.115C149.173 212.147 149.13 212.168 149.053 212.189C148.976 212.21 148.867 212.221 148.747 212.221C148.605 212.221 148.506 212.21 148.429 212.189C148.364 212.168 148.331 212.147 148.331 212.115V202.81C148.331 202.789 148.353 202.768 148.386 202.746C148.43 202.725 148.473 202.715 148.528 202.715C148.583 202.704 148.637 202.704 148.703 202.704C148.769 202.704 148.823 202.704 148.867 202.704H152.083C152.619 202.704 153.122 202.757 153.582 202.873C154.041 202.99 154.446 203.159 154.785 203.391C155.124 203.624 155.398 203.931 155.584 204.301C155.78 204.671 155.879 205.115 155.879 205.623C155.879 205.993 155.824 206.32 155.726 206.606C155.627 206.891 155.485 207.145 155.299 207.367C155.113 207.589 154.894 207.769 154.654 207.928C154.402 208.076 154.129 208.203 153.833 208.298C153.538 208.393 153.221 208.467 152.882 208.509C152.543 208.552 152.203 208.573 151.853 208.573C151.788 208.573 151.733 208.573 151.7 208.573C151.656 208.573 151.624 208.573 151.591 208.573C151.558 208.573 151.514 208.573 151.481 208.573C151.438 208.573 151.394 208.562 151.328 208.562L156.896 212.21Z" fill="#F4EFE6" stroke="#F4EFE6" stroke-width="0.416479" stroke-miterlimit="10"/>
<path d="M158.395 210.56C158.384 210.539 158.384 210.529 158.417 210.518C158.45 210.507 158.494 210.497 158.548 210.486C158.603 210.476 158.669 210.476 158.734 210.476C158.8 210.476 158.866 210.476 158.931 210.476C158.997 210.486 159.052 210.486 159.095 210.497C159.139 210.507 159.172 210.529 159.183 210.55C159.391 210.814 159.642 211.036 159.927 211.226C160.211 211.417 160.506 211.575 160.824 211.702C161.141 211.829 161.458 211.914 161.786 211.977C162.114 212.041 162.432 212.062 162.727 212.062C162.957 212.062 163.208 212.051 163.46 212.03C163.711 212.009 163.952 211.967 164.193 211.914C164.433 211.85 164.663 211.776 164.871 211.671C165.09 211.565 165.276 211.438 165.44 211.279C165.604 211.121 165.724 210.93 165.823 210.708C165.921 210.486 165.965 210.222 165.965 209.926C165.965 209.661 165.932 209.439 165.856 209.238C165.79 209.038 165.691 208.868 165.571 208.71C165.451 208.562 165.309 208.435 165.144 208.329C164.98 208.223 164.805 208.139 164.619 208.065C164.433 207.991 164.237 207.927 164.04 207.885C163.843 207.843 163.646 207.8 163.449 207.769C163.34 207.748 163.219 207.737 163.099 207.726C162.979 207.716 162.847 207.695 162.716 207.684C162.454 207.652 162.169 207.61 161.874 207.547C161.578 207.483 161.294 207.409 161.01 207.314C160.725 207.219 160.463 207.103 160.211 206.965C159.959 206.828 159.741 206.68 159.544 206.5C159.347 206.32 159.205 206.119 159.084 205.887C158.975 205.654 158.92 205.4 158.92 205.115C158.92 204.829 158.975 204.565 159.073 204.332C159.172 204.1 159.314 203.888 159.489 203.708C159.664 203.529 159.872 203.37 160.102 203.232C160.342 203.095 160.594 202.989 160.856 202.905C161.13 202.82 161.403 202.757 161.688 202.714C161.972 202.672 162.268 202.651 162.541 202.651C162.749 202.651 162.99 202.672 163.252 202.704C163.515 202.735 163.777 202.778 164.04 202.841C164.302 202.905 164.565 202.968 164.816 203.053C165.068 203.127 165.287 203.222 165.484 203.317C165.68 203.412 165.834 203.507 165.954 203.613C166.074 203.719 166.129 203.814 166.129 203.92C166.129 203.941 166.085 203.962 165.998 203.983C165.91 203.994 165.812 204.004 165.713 204.004C165.582 204.004 165.484 203.994 165.44 203.983C165.396 203.973 165.363 203.951 165.341 203.93C165.144 203.74 164.926 203.581 164.707 203.444C164.477 203.306 164.247 203.201 164.007 203.106C163.766 203.021 163.526 202.947 163.274 202.905C163.022 202.862 162.782 202.841 162.541 202.841C162.333 202.841 162.114 202.852 161.896 202.884C161.677 202.915 161.458 202.968 161.25 203.032C161.042 203.095 160.846 203.19 160.66 203.296C160.474 203.402 160.31 203.539 160.178 203.698C160.047 203.856 159.938 204.036 159.861 204.248C159.784 204.459 159.752 204.692 159.752 204.956C159.763 205.199 159.806 205.421 159.894 205.601C159.981 205.791 160.102 205.961 160.255 206.098C160.408 206.246 160.583 206.362 160.791 206.468C160.999 206.574 161.206 206.658 161.425 206.732C161.644 206.806 161.874 206.859 162.114 206.902C162.355 206.944 162.574 206.976 162.793 207.007L163.438 207.081C163.701 207.124 163.974 207.166 164.237 207.229C164.51 207.293 164.762 207.377 165.013 207.473C165.265 207.568 165.495 207.684 165.713 207.822C165.932 207.959 166.118 208.107 166.282 208.287C166.446 208.467 166.567 208.667 166.665 208.89C166.752 209.112 166.807 209.365 166.807 209.64C166.807 209.979 166.742 210.275 166.621 210.529C166.501 210.793 166.337 211.015 166.129 211.216C165.921 211.406 165.68 211.575 165.396 211.713C165.123 211.85 164.827 211.956 164.51 212.041C164.204 212.125 163.876 212.178 163.558 212.22C163.23 212.263 162.913 212.273 162.607 212.273C162.202 212.273 161.797 212.242 161.403 212.178C161.01 212.115 160.627 212.009 160.266 211.871C159.905 211.734 159.566 211.554 159.238 211.343C158.942 211.11 158.658 210.856 158.395 210.56Z" fill="#F4EFE6" stroke="#F4EFE6" stroke-width="0.416479" stroke-miterlimit="10"/>
<path d="M172.32 212.231C172.156 212.231 172.047 212.221 171.992 212.2C171.937 212.178 171.915 212.157 171.915 212.126V202.894H168.962C168.841 202.894 168.732 202.884 168.655 202.863C168.579 202.842 168.535 202.82 168.535 202.789C168.535 202.746 168.579 202.725 168.655 202.715C168.732 202.704 168.841 202.704 168.962 202.704H175.722C175.886 202.704 175.995 202.715 176.05 202.725C176.116 202.746 176.149 202.768 176.149 202.81C176.149 202.82 176.138 202.831 176.105 202.842C176.083 202.852 176.039 202.863 176.006 202.863C175.963 202.873 175.919 202.873 175.864 202.873C175.809 202.873 175.766 202.873 175.722 202.873H172.758V212.104C172.758 212.136 172.714 212.157 172.637 212.178C172.55 212.221 172.451 212.231 172.32 212.231Z" fill="#F4EFE6" stroke="#F4EFE6" stroke-width="0.416479" stroke-miterlimit="10"/>
<path d="M181.883 212.231C181.719 212.231 181.609 212.22 181.555 212.199C181.5 212.178 181.478 212.157 181.478 212.125V207.451L180.57 206.267C180.373 206.035 180.154 205.781 179.936 205.506C179.717 205.241 179.487 204.967 179.268 204.702C179.05 204.438 178.842 204.184 178.634 203.951C178.437 203.708 178.251 203.497 178.098 203.317C177.945 203.137 177.824 202.989 177.726 202.883C177.638 202.778 177.606 202.714 177.638 202.704C177.671 202.693 177.715 202.683 177.781 202.672C177.835 202.661 177.901 202.661 177.967 202.651C177.999 202.651 178.043 202.651 178.076 202.64C178.131 202.64 178.349 202.651 178.426 202.683C178.568 202.725 178.71 202.778 178.809 202.894L182.211 206.997L185.875 202.683C185.875 202.672 185.897 202.661 185.941 202.63C185.985 202.598 186.029 202.587 186.083 202.587C186.138 202.587 186.171 202.598 186.193 202.609C186.215 202.619 186.225 202.64 186.225 202.661C186.225 202.683 186.225 202.704 186.225 202.725C186.215 202.746 186.16 202.831 186.05 202.957C185.941 203.084 185.799 203.254 185.613 203.465C185.427 203.677 185.219 203.93 184.989 204.205C184.749 204.48 184.508 204.766 184.256 205.062C184.005 205.358 183.764 205.654 183.524 205.939C183.283 206.225 183.064 206.489 182.867 206.732L182.331 207.451V212.125C182.331 212.157 182.287 212.178 182.211 212.199C182.112 212.22 182.014 212.231 181.883 212.231Z" fill="#F4EFE6" stroke="#F4EFE6" stroke-width="0.416479" stroke-miterlimit="10"/>
<path d="M189.32 211.998H195.358C195.402 211.998 195.457 211.998 195.5 211.998C195.555 211.998 195.599 212.009 195.642 212.009C195.686 212.019 195.719 212.019 195.741 212.03C195.763 212.04 195.785 212.051 195.785 212.061C195.785 212.104 195.752 212.125 195.686 212.146C195.621 212.157 195.511 212.167 195.358 212.167H189.014C188.904 212.167 188.817 212.167 188.751 212.157C188.685 212.157 188.631 212.146 188.587 212.125C188.543 212.114 188.521 212.093 188.499 212.061C188.488 212.04 188.478 211.998 188.478 211.956V202.735C188.478 202.703 188.521 202.682 188.598 202.661C188.685 202.64 188.784 202.629 188.904 202.629C189.035 202.629 189.145 202.64 189.221 202.661C189.298 202.682 189.331 202.703 189.331 202.735V211.998H189.32Z" fill="#F4EFE6" stroke="#F4EFE6" stroke-width="0.416479" stroke-miterlimit="10"/>
<path d="M198.42 202.767C198.42 202.736 198.464 202.714 198.54 202.693C198.617 202.672 198.726 202.662 198.847 202.662C198.934 202.662 199.011 202.662 199.054 202.672C199.109 202.683 199.153 202.683 199.175 202.693C199.208 202.704 199.218 202.714 199.229 202.725C199.24 202.736 199.24 202.757 199.24 202.767V212.125C199.24 212.157 199.197 212.178 199.12 212.199C199.043 212.221 198.934 212.231 198.814 212.231C198.726 212.231 198.65 212.231 198.606 212.221C198.551 212.221 198.507 212.21 198.486 212.199C198.453 212.189 198.442 212.178 198.431 212.168C198.42 212.157 198.42 212.136 198.42 212.125V202.767Z" fill="#F4EFE6" stroke="#F4EFE6" stroke-width="0.416479" stroke-miterlimit="10"/>
<path d="M202.84 203.719V212.125C202.84 212.157 202.829 212.178 202.818 212.199C202.807 212.22 202.763 212.231 202.709 212.231C202.643 212.231 202.599 212.22 202.578 212.199C202.567 212.178 202.556 212.157 202.556 212.125V202.778C202.556 202.767 202.556 202.746 202.567 202.735C202.578 202.725 202.588 202.704 202.621 202.693C202.643 202.683 202.687 202.672 202.742 202.661C202.796 202.651 202.873 202.651 202.96 202.651C203.015 202.651 203.081 202.661 203.146 202.683C203.212 202.704 203.289 202.735 203.354 202.788L210.793 211.163V202.767C210.793 202.746 210.793 202.714 210.804 202.693C210.814 202.661 210.858 202.651 210.924 202.651C210.99 202.651 211.044 202.661 211.055 202.683C211.077 202.704 211.088 202.735 211.088 202.767V212.104C211.088 212.125 211.088 212.136 211.077 212.146C211.066 212.157 211.044 212.178 211.022 212.189C210.99 212.199 210.957 212.21 210.902 212.22C210.847 212.231 210.771 212.231 210.683 212.231C210.596 212.231 210.53 212.231 210.486 212.22C210.443 212.22 210.399 212.21 210.377 212.199C210.355 212.189 210.333 212.178 210.322 212.167C210.311 212.157 210.3 212.136 210.289 212.125L202.84 203.719Z" fill="#F4EFE6" stroke="#F4EFE6" stroke-width="0.416479" stroke-miterlimit="10"/>
<path d="M217.608 209.27C217.477 209.27 217.367 209.26 217.28 209.249C217.192 209.239 217.138 209.207 217.138 209.186C217.138 209.143 217.181 209.122 217.258 209.112C217.335 209.101 217.455 209.101 217.608 209.101H223.351C223.482 209.101 223.592 209.112 223.69 209.122C223.789 209.133 223.832 209.164 223.832 209.196C223.832 209.207 223.821 209.217 223.81 209.249C223.8 209.27 223.778 209.302 223.767 209.344C223.745 209.376 223.734 209.418 223.712 209.45C223.69 209.492 223.668 209.524 223.657 209.545C223.646 209.566 223.624 209.598 223.614 209.63C223.592 209.661 223.581 209.683 223.57 209.714C223.351 210.106 223.078 210.454 222.76 210.761C222.443 211.078 222.093 211.343 221.699 211.565C221.305 211.787 220.879 211.956 220.408 212.072C219.949 212.189 219.457 212.252 218.943 212.252C218.461 212.252 217.991 212.189 217.542 212.072C217.094 211.956 216.667 211.787 216.274 211.575C215.88 211.364 215.519 211.11 215.191 210.814C214.862 210.518 214.578 210.19 214.348 209.831C214.119 209.471 213.933 209.09 213.801 208.689C213.67 208.287 213.604 207.864 213.604 207.43C213.604 206.986 213.67 206.563 213.801 206.151C213.933 205.738 214.108 205.358 214.337 204.998C214.567 204.639 214.852 204.322 215.169 204.025C215.497 203.729 215.858 203.486 216.252 203.275C216.645 203.063 217.072 202.905 217.521 202.788C217.98 202.672 218.45 202.619 218.943 202.619C219.227 202.619 219.522 202.64 219.829 202.683C220.135 202.725 220.43 202.788 220.726 202.873C221.01 202.958 221.284 203.063 221.546 203.19C221.798 203.317 222.016 203.476 222.202 203.645C222.202 203.645 222.323 203.751 222.367 203.793C222.41 203.835 222.432 203.856 222.432 203.856C222.432 203.856 222.137 203.877 222.071 203.888C222.006 203.888 221.94 203.899 221.863 203.909C221.809 203.877 221.655 203.825 221.655 203.825C221.415 203.655 221.185 203.507 220.966 203.37C220.748 203.243 220.54 203.137 220.321 203.053C220.113 202.968 219.894 202.905 219.665 202.862C219.446 202.82 219.194 202.799 218.932 202.799C218.527 202.799 218.133 202.852 217.75 202.968C217.378 203.074 217.017 203.232 216.7 203.433C216.383 203.634 216.077 203.877 215.803 204.152C215.53 204.438 215.3 204.745 215.114 205.093C214.928 205.432 214.775 205.802 214.677 206.204C214.567 206.595 214.523 207.007 214.523 207.43C214.523 207.843 214.578 208.245 214.687 208.636C214.797 209.027 214.95 209.397 215.136 209.735C215.333 210.074 215.563 210.391 215.836 210.677C216.109 210.962 216.405 211.205 216.733 211.406C217.061 211.607 217.411 211.766 217.783 211.882C218.155 211.998 218.538 212.051 218.943 212.051C219.347 212.051 219.752 211.977 220.135 211.829C220.518 211.681 220.89 211.48 221.229 211.226C221.568 210.973 221.885 210.677 222.17 210.338C222.454 210 222.706 209.64 222.913 209.26H217.608V209.27Z" fill="#F4EFE6" stroke="#F4EFE6" stroke-width="0.416479" stroke-miterlimit="10"/>
<path d="M34.9723 202.693C35.4208 202.693 35.8365 202.735 36.2084 202.831C36.5913 202.915 36.9085 203.063 37.182 203.254C37.4554 203.444 37.6742 203.687 37.8273 203.983C37.9805 204.279 38.0571 204.639 38.0571 205.051C38.0571 205.284 38.0242 205.506 37.9586 205.717C37.893 205.929 37.7836 206.13 37.6523 206.31C37.5101 206.489 37.346 206.648 37.1382 206.796C36.9304 206.944 36.6897 207.06 36.4053 207.166H36.3615C36.6897 207.24 36.996 207.346 37.2804 207.494C37.5648 207.642 37.8055 207.822 38.0024 208.022C38.2102 208.234 38.3633 208.467 38.4837 208.72C38.604 208.974 38.6587 209.249 38.6587 209.535C38.6587 209.979 38.5712 210.37 38.3852 210.698C38.1993 211.026 37.9586 211.3 37.6414 211.522C37.3242 211.745 36.9632 211.903 36.5475 212.009C36.1318 212.115 35.6833 212.167 35.213 212.167H33.1346C33.0908 212.167 33.0361 212.167 32.9705 212.167C32.9049 212.167 32.8502 212.157 32.7955 212.157C32.7408 212.146 32.697 212.136 32.6533 212.125C32.6095 212.115 32.5986 212.083 32.5986 212.062V207.293C32.5439 207.293 32.5001 207.303 32.4345 207.303C32.3798 207.303 32.3251 207.303 32.2704 207.303C32.161 207.303 32.0626 207.303 31.9641 207.303C31.8657 207.303 31.7782 207.293 31.7016 207.293C31.625 207.282 31.5703 207.272 31.5266 207.261C31.4828 207.251 31.4609 207.229 31.4609 207.208C31.4609 207.177 31.5047 207.155 31.5813 207.134C31.6578 207.113 31.7672 207.103 31.8875 207.103H32.5986V202.894C32.5986 202.852 32.6095 202.82 32.6205 202.788C32.6314 202.767 32.6642 202.746 32.708 202.725C32.7517 202.714 32.8064 202.704 32.872 202.693C32.9377 202.683 33.0252 202.683 33.1346 202.683H34.9723V202.693ZM35.3333 211.977C35.6724 211.977 35.9896 211.924 36.2959 211.819C36.5913 211.713 36.8538 211.554 37.0835 211.343C37.3132 211.131 37.4882 210.877 37.6086 210.571C37.7398 210.264 37.8055 209.915 37.8055 209.524C37.8055 209.26 37.7727 209.006 37.6961 208.773C37.6195 208.541 37.5211 208.329 37.3898 208.139C37.2585 207.948 37.0944 207.79 36.9085 207.652C36.7225 207.515 36.5256 207.43 36.2959 207.367C36.1099 207.314 35.9349 207.293 35.749 207.282C35.5739 207.272 35.3989 207.272 35.2239 207.272H33.419L33.4081 211.967H35.3333V211.977ZM35.4099 207.092C35.6833 207.092 35.9349 207.05 36.1646 206.955C36.3834 206.859 36.5803 206.722 36.7335 206.553C36.8866 206.373 37.0069 206.161 37.0944 205.908C37.182 205.654 37.2148 205.368 37.2148 205.051C37.2148 204.787 37.182 204.533 37.1054 204.3C37.0288 204.068 36.9304 203.856 36.7991 203.677C36.6678 203.497 36.5037 203.338 36.3178 203.211C36.1318 203.084 35.9349 203 35.7052 202.947C35.5302 202.915 35.3661 202.905 35.1911 202.894C35.0161 202.884 34.852 202.884 34.6879 202.884H33.419V207.103H35.4099V207.092Z" fill="#F4EFE6" stroke="#F4EFE6" stroke-width="0.403853" stroke-miterlimit="10"/>
<path d="M40.2568 207.42C40.2568 206.976 40.3225 206.542 40.4537 206.13C40.585 205.717 40.76 205.337 40.9897 204.977C41.2195 204.618 41.5039 204.301 41.8211 204.004C42.1493 203.708 42.5102 203.465 42.904 203.254C43.2978 203.042 43.7354 202.884 44.1839 202.767C44.6324 202.651 45.1137 202.598 45.6169 202.598C46.1201 202.598 46.6014 202.651 47.0608 202.767C47.5202 202.884 47.9468 203.042 48.3516 203.243C48.7563 203.444 49.1064 203.698 49.4345 203.994C49.7627 204.29 50.0362 204.607 50.2659 204.967C50.4956 205.326 50.6706 205.707 50.8019 206.119C50.9332 206.532 50.9879 206.965 50.9879 207.409C50.9879 207.853 50.9222 208.276 50.7909 208.689C50.6597 209.101 50.4847 209.482 50.2549 209.841C50.0252 210.201 49.7408 210.518 49.4127 210.814C49.0845 211.11 48.7235 211.353 48.3297 211.565C47.9359 211.776 47.5093 211.935 47.0499 212.051C46.5904 212.168 46.1201 212.22 45.6278 212.22C45.1356 212.22 44.6652 212.168 44.2058 212.051C43.7463 211.935 43.3197 211.776 42.9259 211.565C42.5321 211.353 42.1602 211.1 41.843 210.804C41.5148 210.508 41.2304 210.18 41.0007 209.831C40.771 209.471 40.585 209.091 40.4537 208.689C40.3225 208.276 40.2568 207.853 40.2568 207.42ZM41.2304 207.42C41.2304 207.843 41.2851 208.245 41.3945 208.636C41.5039 209.027 41.6461 209.397 41.843 209.736C42.0399 210.074 42.2696 210.391 42.5321 210.666C42.8056 210.952 43.1009 211.195 43.4182 211.396C43.7463 211.597 44.0964 211.755 44.4574 211.872C44.8293 211.988 45.2121 212.041 45.6169 212.041C46.0216 212.041 46.4154 211.988 46.7873 211.872C47.1593 211.766 47.5093 211.607 47.8375 211.406C48.1656 211.205 48.461 210.962 48.7235 210.687C48.986 210.402 49.2158 210.095 49.4127 209.757C49.5986 209.418 49.7518 209.048 49.8502 208.657C49.9487 208.266 50.0034 207.853 50.0034 207.43C50.0034 206.997 49.9487 206.585 49.8502 206.193C49.7518 205.802 49.5986 205.421 49.4127 205.083C49.2267 204.745 48.997 204.427 48.7344 204.153C48.4719 203.878 48.1766 203.634 47.8484 203.434C47.5202 203.233 47.1702 203.074 46.7983 202.968C46.4263 202.862 46.0325 202.81 45.6169 202.81C45.2121 202.81 44.8183 202.863 44.4464 202.979C44.0745 203.095 43.7245 203.243 43.3963 203.444C43.0681 203.645 42.7728 203.888 42.5102 204.163C42.2477 204.438 42.018 204.755 41.8211 205.104C41.6351 205.443 41.482 205.813 41.3835 206.214C41.2851 206.585 41.2304 206.997 41.2304 207.42Z" fill="#F4EFE6" stroke="#F4EFE6" stroke-width="0.403853" stroke-miterlimit="10"/>
<path d="M61.6969 208.371C61.6969 208.604 61.686 208.847 61.6532 209.101C61.6204 209.355 61.5657 209.608 61.4782 209.862C61.3469 210.232 61.15 210.571 60.8984 210.867C60.6468 211.163 60.3515 211.417 60.0124 211.617C59.6733 211.818 59.3013 211.977 58.8966 212.093C58.4919 212.199 58.0762 212.252 57.6496 212.252C57.212 212.252 56.7854 212.199 56.3478 212.083C55.9212 211.977 55.5165 211.818 55.1446 211.607C54.7726 211.395 54.4445 211.142 54.1601 210.846C53.8757 210.549 53.6678 210.211 53.5256 209.841C53.449 209.587 53.3834 209.333 53.3506 209.08C53.3178 208.826 53.2959 208.583 53.2959 208.35V202.756C53.2959 202.725 53.3397 202.704 53.4162 202.682C53.4928 202.661 53.6022 202.651 53.7225 202.651C53.8866 202.651 53.996 202.661 54.0507 202.682C54.1054 202.704 54.1382 202.725 54.1382 202.756V208.318C54.1382 208.583 54.1491 208.837 54.171 209.09C54.1929 209.344 54.2476 209.577 54.3132 209.799C54.4335 210.158 54.6086 210.475 54.8492 210.761C55.0789 211.046 55.3524 211.279 55.6478 211.469C55.9431 211.66 56.2713 211.808 56.6104 211.903C56.9495 211.998 57.2886 212.051 57.6277 212.051C57.8465 212.051 58.0871 212.03 58.3278 211.977C58.5684 211.935 58.8091 211.861 59.0388 211.776C59.2794 211.691 59.5092 211.575 59.7279 211.448C59.9467 211.321 60.1546 211.173 60.3515 211.004C60.5374 210.835 60.7124 210.645 60.8546 210.444C60.9968 210.243 61.1172 210.01 61.1937 209.778C61.2703 209.556 61.325 209.323 61.3469 209.059C61.3688 208.794 61.3797 208.54 61.3797 208.276V202.714C61.3797 202.682 61.4016 202.661 61.4344 202.651C61.4672 202.64 61.511 202.64 61.5547 202.64C61.6094 202.64 61.6422 202.651 61.6532 202.672C61.6641 202.693 61.6751 202.725 61.6751 202.756V208.371H61.6969Z" fill="#F4EFE6" stroke="#F4EFE6" stroke-width="0.403853" stroke-miterlimit="10"/>
<path d="M67.9675 212.231C67.8034 212.231 67.694 212.221 67.6393 212.2C67.5846 212.178 67.5627 212.157 67.5627 212.126V202.894H64.6092C64.4889 202.894 64.3795 202.884 64.3029 202.863C64.2264 202.842 64.1826 202.82 64.1826 202.789C64.1826 202.746 64.2264 202.725 64.3029 202.715C64.3795 202.704 64.4889 202.704 64.6092 202.704H71.3694C71.5335 202.704 71.6429 202.715 71.6976 202.725C71.7632 202.746 71.7961 202.768 71.7961 202.81C71.7961 202.82 71.7851 202.831 71.7523 202.842C71.7304 202.852 71.6867 202.863 71.6538 202.863C71.6101 202.873 71.5663 202.873 71.5116 202.873C71.4569 202.873 71.4132 202.873 71.3694 202.873H68.405V212.104C68.405 212.136 68.3613 212.157 68.2847 212.178C68.1972 212.221 68.0987 212.231 67.9675 212.231Z" fill="#F4EFE6" stroke="#F4EFE6" stroke-width="0.403853" stroke-miterlimit="10"/>
<path d="M74.2314 202.767C74.2314 202.736 74.2752 202.714 74.3518 202.693C74.4283 202.672 74.5377 202.662 74.6581 202.662C74.7456 202.662 74.8221 202.662 74.8659 202.672C74.9206 202.683 74.9643 202.683 74.9862 202.693C75.019 202.704 75.03 202.714 75.0409 202.725C75.0519 202.736 75.0519 202.757 75.0519 202.767V212.125C75.0519 212.157 75.0081 212.178 74.9315 212.199C74.855 212.221 74.7456 212.231 74.6252 212.231C74.5377 212.231 74.4612 212.231 74.4174 212.221C74.3627 212.21 74.319 212.21 74.2971 212.199C74.2643 212.189 74.2533 212.178 74.2424 212.168C74.2314 212.157 74.2314 212.136 74.2314 212.125V202.767Z" fill="#F4EFE6" stroke="#F4EFE6" stroke-width="0.403853" stroke-miterlimit="10"/>
<path d="M87.0627 212.95C86.8001 212.95 86.5704 212.918 86.3626 212.865C86.1548 212.813 85.9579 212.728 85.7828 212.633C85.6078 212.538 85.4437 212.432 85.3015 212.305C85.1593 212.178 85.0171 212.051 84.8859 211.924C84.6014 212.019 84.317 212.093 84.0108 212.146C83.7154 212.199 83.3982 212.231 83.0591 212.231C82.5778 212.231 82.1074 212.178 81.6479 212.062C81.1995 211.945 80.7728 211.787 80.379 211.575C79.9852 211.364 79.6243 211.11 79.2961 210.814C78.9679 210.518 78.6945 210.19 78.4538 209.841C78.2132 209.492 78.0381 209.101 77.9069 208.699C77.7756 208.287 77.71 207.864 77.71 207.43C77.71 206.986 77.7756 206.563 77.8959 206.151C78.0272 205.738 78.2022 205.358 78.4319 204.998C78.6617 204.639 78.9461 204.322 79.2633 204.025C79.5915 203.729 79.9415 203.486 80.3462 203.275C80.74 203.063 81.1666 202.905 81.6261 202.788C82.0855 202.672 82.5559 202.619 83.0481 202.619C83.5404 202.619 84.0217 202.672 84.4811 202.788C84.9405 202.905 85.3672 203.063 85.761 203.264C86.1548 203.465 86.5157 203.719 86.833 204.015C87.1611 204.311 87.4346 204.628 87.6643 204.988C87.894 205.347 88.0691 205.728 88.2003 206.14C88.3316 206.553 88.3863 206.986 88.3863 207.43C88.3863 207.885 88.3207 208.319 88.1785 208.742C88.0362 209.164 87.8393 209.556 87.5768 209.936C87.3143 210.306 86.997 210.645 86.6251 210.951C86.2532 211.258 85.8375 211.522 85.3781 211.755L85.5203 211.766C85.6516 211.893 85.7828 212.019 85.9141 212.136C86.0454 212.263 86.1766 212.368 86.297 212.464C86.4282 212.559 86.5595 212.633 86.6908 212.696C86.822 212.76 86.9533 212.781 87.0955 212.781C87.1393 212.781 87.183 212.77 87.2377 212.749C87.2924 212.728 87.3471 212.707 87.4127 212.686C87.4784 212.664 87.5331 212.633 87.5877 212.601C87.6424 212.569 87.6971 212.538 87.7409 212.516C87.7847 212.495 87.8284 212.474 87.8831 212.464C87.9378 212.453 88.0034 212.442 88.0909 212.442C88.2222 212.442 88.3316 212.442 88.4082 212.453C88.4847 212.453 88.5285 212.464 88.5285 212.474C88.5066 212.527 88.4629 212.58 88.3972 212.622C88.3316 212.664 88.255 212.707 88.1675 212.739C88.08 212.77 87.9815 212.802 87.8831 212.834C87.7737 212.865 87.6753 212.887 87.5659 212.908C87.4674 212.929 87.369 212.939 87.2705 212.95C87.1939 212.95 87.1174 212.95 87.0627 212.95ZM84.3827 211.417C84.2733 211.29 84.142 211.142 84.0108 210.983C83.8685 210.825 83.7263 210.666 83.5841 210.507C83.431 210.349 83.2778 210.19 83.1247 210.042C82.9715 209.894 82.8184 209.757 82.6653 209.64C82.5121 209.524 82.3699 209.429 82.2386 209.355C82.1074 209.281 81.9871 209.249 81.8777 209.249C81.8339 209.249 81.7792 209.26 81.7136 209.291C81.648 209.313 81.5823 209.344 81.5167 209.387C81.4511 209.429 81.3854 209.461 81.3198 209.513C81.2541 209.556 81.1995 209.598 81.1448 209.63C81.0901 209.661 81.0463 209.693 80.9916 209.714C80.9369 209.735 80.8494 209.746 80.7291 209.746C80.6744 209.746 80.6197 209.746 80.565 209.746C80.5103 209.746 80.4666 209.735 80.4228 209.735C80.379 209.725 80.3462 209.725 80.3243 209.714C80.3025 209.704 80.2915 209.693 80.2915 209.683C80.2915 209.63 80.3243 209.577 80.39 209.535C80.4556 209.482 80.5322 209.439 80.6416 209.397C80.751 209.355 80.8604 209.313 80.9807 209.27C81.101 209.228 81.2323 209.196 81.3526 209.175C81.4729 209.143 81.5823 209.122 81.6917 209.112C81.7902 209.101 81.8777 209.09 81.9324 209.09C82.1402 209.09 82.348 209.133 82.5559 209.196C82.7637 209.27 82.9606 209.365 83.1685 209.492C83.3654 209.609 83.5623 209.757 83.7482 209.905C83.9342 210.063 84.1092 210.222 84.2733 210.391C84.4374 210.56 84.6014 210.729 84.7436 210.888C84.8859 211.057 85.0281 211.205 85.1374 211.343C85.1593 211.364 85.1703 211.385 85.1921 211.406C85.214 211.427 85.225 211.448 85.2468 211.47C85.5969 211.269 85.9032 211.036 86.1876 210.761C86.461 210.486 86.7017 210.169 86.8986 209.82C87.0955 209.471 87.2377 209.101 87.3471 208.699C87.4456 208.297 87.5002 207.874 87.5002 207.441C87.5002 207.007 87.4456 206.595 87.3471 206.193C87.2487 205.791 87.0955 205.421 86.9095 205.083C86.7236 204.745 86.4939 204.427 86.2313 204.152C85.9688 203.877 85.6735 203.634 85.3453 203.433C85.0171 203.232 84.6671 203.084 84.2842 202.968C83.9014 202.862 83.5076 202.809 83.1028 202.809C82.6981 202.809 82.3043 202.862 81.9324 202.979C81.5604 203.095 81.2104 203.243 80.8822 203.444C80.5541 203.645 80.2587 203.888 79.9852 204.163C79.7118 204.438 79.4821 204.755 79.2961 205.104C79.0992 205.442 78.957 205.812 78.8476 206.214C78.7382 206.606 78.6945 207.018 78.6945 207.441C78.6945 207.864 78.7492 208.266 78.8585 208.657C78.9679 209.048 79.1101 209.418 79.307 209.757C79.5039 210.095 79.7336 210.412 80.0071 210.687C80.2806 210.973 80.5759 211.216 80.9041 211.417C81.2323 211.618 81.5823 211.776 81.9542 211.893C82.3262 212.009 82.72 212.062 83.1138 212.062C83.3763 212.062 83.6607 212.03 83.9451 211.967C84.2295 211.903 84.5249 211.819 84.8093 211.702L84.6124 211.649L84.3827 211.417Z" fill="#F4EFE6" stroke="#F4EFE6" stroke-width="0.403853" stroke-miterlimit="10"/>
<path d="M99.1276 208.371C99.1276 208.604 99.1167 208.847 99.0838 209.101C99.051 209.355 98.9963 209.608 98.9088 209.862C98.7776 210.232 98.5807 210.571 98.3291 210.867C98.0775 211.163 97.7821 211.417 97.443 211.617C97.1039 211.818 96.732 211.977 96.3273 212.093C95.9225 212.199 95.5068 212.252 95.0802 212.252C94.6427 212.252 94.2161 212.199 93.7785 212.083C93.3519 211.977 92.9472 211.818 92.5752 211.607C92.2033 211.395 91.8751 211.142 91.5907 210.846C91.3063 210.549 91.0985 210.211 90.9563 209.841C90.8797 209.587 90.8141 209.333 90.7813 209.08C90.7484 208.826 90.7266 208.583 90.7266 208.35V202.756C90.7266 202.725 90.7703 202.704 90.8469 202.682C90.9235 202.661 91.0329 202.651 91.1532 202.651C91.3173 202.651 91.4267 202.661 91.4813 202.682C91.536 202.704 91.5689 202.725 91.5689 202.756V208.318C91.5689 208.583 91.5798 208.837 91.6017 209.09C91.6235 209.344 91.6782 209.577 91.7439 209.799C91.8642 210.158 92.0392 210.475 92.2799 210.761C92.5096 211.046 92.7831 211.279 93.0784 211.469C93.3738 211.66 93.7019 211.808 94.041 211.903C94.3801 211.998 94.7193 212.051 95.0584 212.051C95.2771 212.051 95.5178 212.03 95.7584 211.977C95.9991 211.935 96.2397 211.861 96.4695 211.776C96.7101 211.691 96.9398 211.575 97.1586 211.448C97.3774 211.321 97.5852 211.173 97.7821 211.004C97.979 210.835 98.1431 210.645 98.2853 210.444C98.4275 210.243 98.5478 210.01 98.6244 209.778C98.701 209.556 98.7557 209.323 98.7776 209.059C98.7994 208.805 98.8104 208.54 98.8104 208.276V202.714C98.8104 202.682 98.8323 202.661 98.8651 202.651C98.8979 202.64 98.9416 202.64 98.9854 202.64C99.0401 202.64 99.0729 202.651 99.0838 202.672C99.0948 202.693 99.1057 202.725 99.1057 202.756V208.371H99.1276Z" fill="#F4EFE6" stroke="#F4EFE6" stroke-width="0.403853" stroke-miterlimit="10"/>
<path d="M102.429 209.313H101.718C101.586 209.313 101.488 209.302 101.411 209.281C101.335 209.26 101.291 209.239 101.291 209.207C101.291 209.175 101.335 209.154 101.411 209.143C101.488 209.133 101.597 209.133 101.718 209.133H102.429V202.82C102.429 202.799 102.451 202.778 102.483 202.757C102.516 202.735 102.571 202.725 102.626 202.725C102.68 202.725 102.735 202.714 102.801 202.714C102.866 202.714 102.921 202.714 102.965 202.714H109.309C109.43 202.714 109.528 202.725 109.615 202.746C109.703 202.767 109.736 202.788 109.736 202.82C109.736 202.852 109.692 202.873 109.615 202.884C109.528 202.894 109.43 202.905 109.309 202.905H103.271V209.143H109.495C109.615 209.143 109.714 209.154 109.801 209.175C109.889 209.196 109.922 209.217 109.922 209.249C109.922 209.281 109.878 209.302 109.801 209.313C109.725 209.323 109.615 209.334 109.495 209.334H103.271V212.019H109.309C109.353 212.019 109.408 212.019 109.451 212.019C109.495 212.019 109.55 212.03 109.594 212.03C109.637 212.03 109.67 212.041 109.692 212.051C109.714 212.062 109.736 212.072 109.736 212.083C109.736 212.125 109.703 212.146 109.637 212.168C109.572 212.178 109.462 212.189 109.309 212.189H102.965C102.855 212.189 102.768 212.189 102.702 212.178C102.636 212.178 102.582 212.168 102.538 212.146C102.494 212.125 102.472 212.115 102.451 212.083C102.44 212.062 102.429 212.019 102.429 211.977V209.313Z" fill="#F4EFE6" stroke="#F4EFE6" stroke-width="0.403853" stroke-miterlimit="10"/>
</g>
<defs>
<clipPath id="clip0_25_525">
<rect width="253.453" height="245" fill="white"/>
</clipPath>
</defs>
</svg>
