<svg width="712" height="116" viewBox="0 0 712 116" fill="none" xmlns="http://www.w3.org/2000/svg">
<path fill-rule="evenodd" clip-rule="evenodd" d="M45.1549 1.03152C6.49392 9.86152 -11.9561 53.5575 8.34692 88.2015C17.7339 104.221 34.6109 114.245 54.0269 115.337C66.4799 116.036 74.1389 114.549 84.6739 109.386C99.0299 102.351 110.265 88.5725 114.31 73.0445C116.242 65.6235 116.27 49.8095 114.363 42.6415C109.344 23.7845 94.4929 8.31752 75.8439 2.52752C67.3279 -0.117481 53.1979 -0.805483 45.1549 1.03152ZM149.838 57.5265V112.458L152.088 112.777C153.326 112.953 165.475 112.969 179.088 112.814L203.838 112.53V107.583V102.637L182.588 102.367L161.338 102.097L161.079 52.3465L160.819 2.59652H155.329H149.838V57.5265ZM256.06 42.8025C245.565 64.9645 233.82 89.7335 229.96 97.8465L222.942 112.597H229.223H235.504L243.921 94.6145L252.338 76.6325L276.121 76.6145L299.905 76.5965L308.49 94.5135L317.075 112.431L322.958 112.764C326.194 112.947 328.841 112.865 328.84 112.582C328.832 110.432 277.704 3.03251 276.579 2.80251C275.576 2.59751 269.377 14.6815 256.06 42.8025ZM357.838 57.5265V112.458L360.088 112.777C361.326 112.953 363.8 112.935 365.588 112.738L368.838 112.378V87.1145V61.8525L385.588 61.3345C405.584 60.7155 410.963 59.3665 417.517 53.3245C424.639 46.7595 426.324 42.6985 426.324 32.0965C426.324 21.9805 424.56 17.3015 418.599 11.5985C410.821 4.15753 403.616 2.61451 376.588 2.60451L357.838 2.59652V57.5265ZM460.838 57.5965V112.597H487.338H513.838V107.597V102.597H492.838H471.838V52.5965V2.59652H466.338H460.838V57.5965ZM543.08 57.8465L543.338 113.097L574.588 113.361L605.838 113.625V108.111V102.597H580.338H554.838V80.5965V58.5965H580.338H605.838V53.1135V47.6305L580.303 47.3635L554.769 47.0965L554.686 30.5965L554.604 14.0965L580.13 13.8295L605.655 13.5635L605.996 8.07851L606.338 2.59353L574.58 2.59551L542.821 2.59652L543.08 57.8465ZM631.838 3.03753C631.838 3.28053 639.038 15.2315 647.838 29.5965C656.638 43.9615 663.838 55.9105 663.838 56.1495C663.838 56.3885 658.593 65.0245 652.182 75.3405C635.46 102.25 629.838 111.569 629.836 112.382C629.835 112.775 632.647 112.941 636.086 112.749L642.338 112.402L656.284 89.9985C663.954 77.6775 670.479 67.6055 670.784 67.6155C671.089 67.6265 677.534 77.7115 685.106 90.0275L698.874 112.421L704.954 112.759C708.297 112.945 711.177 112.862 711.353 112.575C711.53 112.289 704.047 99.6885 694.725 84.5745C685.4 69.4565 677.96 56.3615 678.184 55.4625C678.407 54.5635 685.464 42.6385 693.865 28.9625C702.266 15.2865 709.324 3.75952 709.548 3.34652C709.772 2.93352 707.103 2.59652 703.616 2.59652H697.276L684.307 23.5825C677.174 35.1245 671.065 44.5745 670.731 44.5825C670.397 44.5905 664.322 35.1485 657.231 23.6005L644.338 2.60451L638.088 2.60052C634.651 2.59852 631.838 2.79453 631.838 3.03753ZM69.1449 12.0885C93.2089 18.3565 107.794 40.6385 104.009 65.3515C101.598 81.0945 92.7939 93.0615 78.3899 100.173C70.4599 104.088 70.4139 104.097 58.3899 104.074C44.2319 104.048 38.0349 102.141 29.4939 95.1815C17.8509 85.6945 12.7849 75.6045 12.0699 60.4835C11.3479 45.1865 14.8569 35.5685 25.0259 24.9795C36.7679 12.7505 53.2259 7.94152 69.1449 12.0885ZM402.338 14.6955C410 16.7785 415.124 23.7525 415.124 32.0965C415.124 37.9665 413.151 42.3135 408.843 45.9385C404.288 49.7715 399.875 50.5845 383.588 50.5905L368.838 50.5965V32.0965V13.5965L383.588 13.6025C391.701 13.6055 400.138 14.0975 402.338 14.6955ZM291.71 58.8465L294.724 65.5965H276.174C261.74 65.5965 257.732 65.3195 258.112 64.3465C258.38 63.6595 262.585 54.8075 267.455 44.6765L276.31 26.2555L282.504 39.1765C285.91 46.2825 290.053 55.1345 291.71 58.8465Z" fill="#020403"/>
</svg>
