<svg width="863" height="193" viewBox="0 0 863 193" fill="none" xmlns="http://www.w3.org/2000/svg">
<path fill-rule="evenodd" clip-rule="evenodd" d="M684.645 1.45074C665.18 6.16274 648.482 22.9347 640.408 45.8837C635.599 59.5517 633.887 70.0617 633.292 89.5537C632.103 128.548 639.86 155.947 657.339 174.484C669.629 187.518 682.063 192.877 699.96 192.855C716.787 192.834 728.881 187.927 740.591 176.367C759.134 158.062 768.184 127.74 766.706 88.8667C764.905 41.4777 745.735 9.32974 714.54 1.38474C707.185 -0.488259 692.522 -0.456265 684.645 1.45074ZM0 96.3667V188.867H9.5H19V147.867V106.867H34.364C42.813 106.867 52.151 106.411 55.114 105.853C78.208 101.506 93.268 78.8447 91.655 50.8667C90.449 29.9367 82.145 15.9867 66.623 8.81273C58.206 4.92273 48.767 3.86674 22.428 3.86674H0V96.3667ZM112.006 68.6167C112.012 138.566 112.432 145.68 117.388 159.932C125.393 182.95 143.906 194.38 170.166 192.516C191.298 191.016 205.242 180.714 212.625 161.147C218.249 146.244 218.274 145.882 218.716 72.0797L219.125 3.79273L209.313 4.07973L199.5 4.36674L198.962 73.8667C198.469 137.577 198.272 143.825 196.601 148.867C193.83 157.222 190.563 163.083 186.331 167.289C180.454 173.128 175.414 174.989 165.401 175.017C158.178 175.037 156.048 174.636 151.458 172.39C142.654 168.083 136.573 159.007 133.34 145.35C131.913 139.321 131.63 129.181 131.269 71.1167L130.852 3.86674H121.426H112L112.006 68.6167ZM252 96.3667V188.867H288H324V179.867V170.867H297.5H271V87.3667V3.86674H261.5H252V96.3667ZM339 96.2527V188.867H348.5H358V147.867V106.867H373.451C381.949 106.867 391.286 106.361 394.201 105.742C410.539 102.272 423.836 88.9157 428.505 71.2857C430.622 63.2887 430.609 46.0057 428.479 37.7867C424.416 22.1057 414.662 11.4797 399.913 6.66474C394.228 4.80974 390.406 4.51874 366.25 4.10474L339 3.63773V96.2527ZM450.5 5.01473C450.216 5.75773 450.1 47.3167 450.242 97.3667L450.5 188.367H466H481.5L481.762 149.077L482.023 109.786L490.192 110.077L498.361 110.367L512.829 149.617L527.297 188.867H544.216C559.878 188.867 561.093 188.737 560.568 187.117C560.256 186.155 552.843 167.151 544.094 144.888L528.187 104.408L533.343 101.589C547.151 94.0417 555.385 79.7057 556.588 61.1157C558.401 33.1197 544.996 12.2777 521.206 6.10273C513.013 3.97573 451.259 3.02573 450.5 5.01473ZM578 96.3667V188.867H594H610V96.3667V3.86674H594H578V96.3667ZM762 18.3667V31.8667H779.5H797V110.367V188.867H812.5H828V110.367V31.8667H845.5H863V18.3667V4.86674H812.5H762V18.3667ZM58 24.4787C68.722 30.5457 73.733 41.9207 72.707 57.8667C71.997 68.9107 69.233 76.2437 63.76 81.6017C56.515 88.6927 51.859 90.1227 34.25 90.6647L19 91.1347V55.9167V20.6977L35.75 21.0327C52.377 21.3647 52.54 21.3897 58 24.4787ZM391.966 22.4497C395.936 23.6277 398.645 25.3807 402.582 29.3177C409.126 35.8617 411.143 41.8537 411.143 54.7457C411.143 68.4497 408.228 76.8257 401.36 82.8557C394.382 88.9827 390.204 90.1427 373.25 90.6647L358 91.1347V56.0007V20.8667H372.318C382.467 20.8667 388.189 21.3277 391.966 22.4497ZM709.801 32.4547C722.921 38.9927 730.703 56.1897 733.209 84.1837C735.153 105.909 732.283 127.651 725.514 142.464C716.113 163.04 698.155 168.904 683.872 156.062C678.021 150.801 674.807 145.598 671.642 136.261C667.43 123.833 666.5 116.522 666.503 95.8667C666.508 69.3477 669.449 55.7357 677.827 43.4557C686.608 30.5857 698.11 26.6287 709.801 32.4547ZM511 33.2887C515.86 35.7967 519.804 39.6567 522.32 44.3667C524.087 47.6757 524.46 50.0947 524.477 58.3667C524.495 67.0617 524.174 69.0007 522.02 73.2207C516.949 83.1527 511.132 85.9647 494.25 86.6437L482 87.1367V58.8837V30.6307L494.75 31.0567C504.455 31.3807 508.336 31.9147 511 33.2887Z" fill="black"/>
</svg>
