<svg width="718" height="453" viewBox="0 0 718 453" fill="none" xmlns="http://www.w3.org/2000/svg">
<path fill-rule="evenodd" clip-rule="evenodd" d="M187.73 2.39615C166.649 8.07015 154.07 17.3411 148.345 31.4281C146.367 36.2951 145.185 37.6211 139.305 41.5651C124.634 51.4071 118.731 60.6951 114.306 80.8931C112.924 87.2041 111.136 93.8241 110.334 95.6031C108.874 98.8391 98.3641 107.233 83.1641 117.302C78.5771 120.34 75.7831 122.911 75.3971 124.449C74.5411 127.86 76.9301 132.729 81.7121 137.321C86.5761 141.992 87.0491 145.373 83.3281 148.868C80.1201 151.882 80.1111 155.862 83.3041 159.658L85.7811 162.601L83.7021 164.482C81.5351 166.443 78.8281 171.044 78.8281 172.767C78.8281 173.316 79.9861 175.015 81.4021 176.542C83.2871 178.577 83.8211 179.993 83.3981 181.843C83.0801 183.232 82.5371 187.556 82.1921 191.453C81.0951 203.829 84.7871 209.596 95.3131 211.952C99.8421 212.966 104.421 212.887 121.074 211.512C145.775 209.472 154.384 209.434 164.25 211.322C180.129 214.36 191.241 222.281 199.763 236.636C204.544 244.69 205.478 245.618 207.138 243.958C207.986 243.11 207.861 240.821 206.642 234.929C202.483 214.815 191.163 202.117 173.257 197.48C161.3 194.384 150.407 193.79 128.612 195.046C108.956 196.179 107.793 196.146 105.862 194.399C103.199 191.988 103.184 186.052 105.828 180.868C108.36 175.904 108.344 174.046 105.742 171.277C103.95 169.369 103.83 168.727 104.888 166.712C105.566 165.423 106.729 164.008 107.474 163.568C109.801 162.194 108.966 159.478 105.323 156.572L101.819 153.775L104.323 150.09C105.837 147.862 106.828 144.995 106.828 142.843C106.828 139.865 106.009 138.508 101.828 134.562C99.0781 131.967 96.8281 129.195 96.8281 128.402C96.8281 127.61 97.9771 126.153 99.3821 125.165C115.383 113.907 125.895 104.476 128.889 98.6941C129.961 96.6241 131.249 90.9821 131.839 85.7721C132.415 80.6861 133.706 74.6891 134.707 72.4461C137.542 66.0981 143.894 58.7961 150.868 53.8681C154.371 51.3931 158.383 48.0561 159.783 46.4521C168.122 36.8991 170.586 34.5831 175.204 31.9511C178.022 30.3461 183.253 28.2401 186.828 27.2711C195.504 24.9211 212.053 24.9051 220.828 27.2401C231.519 30.0831 248.317 38.9801 265.828 51.0741C348.208 107.964 364.101 115.806 397.12 115.851C418.496 115.88 431.195 112.282 468.828 95.5341C504.908 79.4781 520.168 74.6351 534.828 74.5901C546.106 74.5541 552.832 77.1261 560.831 84.5311C564.095 87.5531 567.229 89.7381 567.796 89.3871C569.738 88.1881 568.829 82.1901 565.783 76.0941C561.668 67.8591 553.097 60.0161 544.18 56.3281C538.043 53.7891 536.128 53.4901 525.828 53.4551C516.783 53.4241 512.407 53.9261 505.328 55.8081C491.838 59.3941 475.127 65.7841 456.772 74.3751C428.173 87.7611 420.894 89.8511 402.828 89.8601C377.529 89.8721 351.996 79.8381 318.391 56.6751C254.244 12.4631 246.631 8.34014 215.564 0.995145C208.266 -0.730855 197.299 -0.178854 187.73 2.39615ZM208.058 56.4181C201.726 58.1231 198.112 59.9171 193.948 63.4211C188.207 68.2521 190.713 70.5971 199.781 68.8771C212.004 66.5591 223.918 68.3941 236.259 74.4971C248.168 80.3851 252.688 84.1441 293.828 122.381C300.703 128.771 310.731 137.314 316.113 141.366C331.781 153.162 353.21 163.293 371.328 167.471C382.989 170.161 403.691 169.947 418.828 166.981C439.574 162.916 454.78 157.322 501.51 136.562C516.177 130.046 533.37 124.207 543.522 122.294C563.017 118.621 576.348 122.182 587.271 133.98C594.013 141.262 596.449 141.413 595.5 134.488C593.995 123.513 587.214 112.201 578.596 106.289C570.275 100.581 562.013 98.4361 548.828 98.5601C529.712 98.7401 516.548 102.836 469.828 123.143C428.549 141.086 409.835 145.112 384.95 141.406C363.611 138.228 342.012 128.785 315.236 110.928C307.036 105.46 295.005 96.7971 288.499 91.6771C256.144 66.2131 247.481 60.7061 233.848 56.9361C225.222 54.5511 215.705 54.3601 208.058 56.4181ZM239.078 119.838C235.151 121.524 236.516 123.618 243.05 125.932C250.02 128.399 260.302 137.167 282.828 159.851C331.311 208.674 354.244 220.854 397.7 220.865C426.3 220.872 452.576 213.772 493.828 194.887C542.936 172.407 556.109 168.271 576.173 169.034C584.961 169.369 587.203 169.834 592.828 172.489C599.361 175.573 606.445 181.718 609.575 187.017C611.568 190.391 614.366 190.742 615.157 187.718C616.066 184.242 614.056 175.855 610.641 168.876C604.768 156.872 594.592 149.41 579.804 146.264C562.043 142.485 534.142 148.683 497.328 164.587C454.85 182.939 440.487 188.215 422.828 191.953C410.446 194.574 383.646 195.155 373.062 193.031C348.584 188.12 325.993 175.459 301.328 152.827C274.058 127.804 261.594 119.976 247.828 119.226C244.253 119.031 240.316 119.306 239.078 119.838ZM613.067 260.521C611.274 261.405 608.574 263.536 607.067 265.256C604.509 268.178 553.828 375.248 553.828 377.732C553.828 378.524 557.91 378.868 567.305 378.868C582.986 378.868 581.087 380.185 587.867 364.618L592.114 354.868H631.435H670.756L676.274 366.476L681.792 378.084L695.56 377.628C706.366 377.27 709.261 376.884 709.017 375.836C708.213 372.389 657.323 268.956 654.964 265.973C650.007 259.708 647.136 258.865 630.844 258.891C619.565 258.908 615.601 259.272 613.067 260.521ZM449.127 310.118C449.545 345.12 450.093 361.494 450.934 364.079C452.627 369.289 457.465 374.799 462.257 376.975C465.981 378.666 469.505 378.826 503.556 378.846L540.783 378.868L545.806 368.221C548.568 362.364 550.828 357.362 550.828 357.104C550.828 356.846 534.457 356.967 514.449 357.372C478.231 358.106 478.06 358.1 475.949 355.989C473.886 353.926 473.828 353.083 473.828 325.028C473.828 309.166 473.532 288.016 473.17 278.028L472.512 259.868H460.519H448.526L449.127 310.118ZM256.828 261.846C228.461 262.256 217.54 262.744 215.332 263.704C209.739 266.134 205.594 270.137 203.155 275.464L200.724 280.775L201.026 321.571L201.328 362.368L204.302 367.738C205.938 370.692 208.75 374.232 210.55 375.605C217.288 380.744 217.676 380.777 272.078 380.824L322.828 380.868V377.311C322.828 371.342 320.727 364.972 317.685 361.715L314.795 358.621L271.732 358.994C230.032 359.356 228.625 359.307 227.249 357.427C226.203 355.998 225.828 352.236 225.828 343.177V330.868L254.578 330.859C270.391 330.855 285.691 330.567 288.578 330.22L293.828 329.589V319.229V308.868H259.828H225.828V297.939C225.828 289.827 226.194 286.645 227.249 285.589C228.409 284.43 236.462 284.035 270.999 283.443C311.367 282.752 313.427 282.627 315.465 280.725C317.796 278.55 320.828 269.125 320.828 264.052V260.868L308.078 261.079C301.066 261.196 278.003 261.541 256.828 261.846ZM336.109 310.804C336.527 345.601 337.079 361.974 337.929 364.811C338.6 367.051 340.657 370.644 342.499 372.797C348.586 379.908 348.935 379.952 396.828 379.643L439.328 379.368L439.152 374.457C438.894 367.231 436.256 361.141 432.557 359.228C429.831 357.818 425.818 357.714 398.398 358.34C365.314 359.096 362.261 358.792 361.418 354.653C361.023 352.712 359.852 288.41 359.834 267.618L359.828 260.868H347.668H335.509L336.109 310.804ZM164.352 263.118C164.125 263.806 161.468 272.018 158.447 281.368C143.823 326.631 138.825 342.531 138.798 343.888C138.771 345.18 138.656 345.177 137.889 343.868C137.406 343.043 131.534 327.293 124.84 308.868C111.169 271.238 109.765 267.915 106.739 266.036C103.565 264.066 86.5281 264.363 83.3511 266.445C79.9311 268.686 78.4671 272.206 65.2981 309.868C58.8561 328.293 53.2921 343.693 52.9331 344.091C52.5751 344.489 46.3181 326.601 39.0281 304.341L25.7741 263.868H12.8011C-0.351873 263.868 -1.20688 264.137 0.850123 267.632C1.41312 268.587 9.74411 292.993 19.3641 321.868C28.9841 350.743 37.5611 376.281 38.4241 378.618L39.9931 382.868H51.4461H62.8991L64.6971 378.618C65.6861 376.281 72.7351 357.409 80.3611 336.682C87.9871 315.955 94.4991 299.165 94.8321 299.371C95.1651 299.576 102.358 318.235 110.816 340.835L126.194 381.925L138.684 381.647L151.175 381.368L160.43 352.868C165.521 337.193 173.929 311.318 179.114 295.368C184.3 279.418 188.862 265.355 189.253 264.118L189.963 261.868H177.364C168.172 261.868 164.654 262.206 164.352 263.118ZM635.841 281.881C637.669 283.709 647.349 302.9 658.333 326.469L662.574 335.571L631.451 336.126C614.333 336.431 600.204 336.561 600.053 336.416C599.76 336.134 610.333 312.413 618.643 294.709C621.395 288.846 624.587 283.109 625.737 281.959C628.404 279.292 633.215 279.255 635.841 281.881ZM686.249 398.764C678.468 402.299 674.981 410.023 678.471 415.996C680.96 420.255 685.937 422.657 696.164 424.535C700.847 425.395 706.088 426.956 707.812 428.004C710.545 429.666 710.907 430.384 710.637 433.607C710.393 436.522 709.61 437.786 706.93 439.586C702.401 442.628 690.317 442.806 682.779 439.941C677.402 437.898 676.225 438.431 676.997 442.56C677.803 446.861 695.534 449.705 704.828 447.024C709.915 445.556 712.384 443.766 715.6 439.214C721.568 430.764 716.112 422.413 702.693 419.46C686.445 415.883 685.73 415.648 684.251 413.391C682.144 410.175 683.808 406.58 688.418 404.392C691.497 402.931 693.717 402.719 700.751 403.213C705.468 403.544 710.601 404.111 712.157 404.473C714.807 405.09 714.965 404.948 714.657 402.25C714.397 399.974 713.592 399.117 710.828 398.174C705.182 396.249 691.041 396.588 686.249 398.764ZM571.921 422.73C564.72 436.404 558.828 447.907 558.828 448.293C558.828 448.679 560.29 448.854 562.078 448.681C564.937 448.406 565.726 447.616 568.633 442.118L571.938 435.868H588.699H605.46L608.328 441.868C611.008 447.474 611.42 447.868 614.619 447.868C617.468 447.868 617.929 447.575 617.371 446.118C616.452 443.719 592.837 400.674 591.587 399.118C591.035 398.431 589.33 397.868 587.798 397.868C585.177 397.868 584.242 399.333 571.921 422.73ZM628.828 422.868V447.868H648.72H668.611L669.25 445.322C669.602 443.922 669.612 442.328 669.273 441.779C668.876 441.137 662.876 441.027 652.403 441.469L636.148 442.156L635.488 432.858C635.125 427.745 634.828 417.78 634.828 410.714V397.868H631.828H628.828V422.868ZM365.328 399.74C354.239 402.674 349.179 410.846 353.399 419.005C355.37 422.816 360.582 425.161 372.13 427.432C382.102 429.392 385.828 431.659 385.828 435.766C385.828 443.689 371.714 447.401 358.828 442.868C351.738 440.374 351.828 440.362 351.828 443.785C351.828 448.127 358.297 450.368 370.828 450.368C379.111 450.368 380.821 450.061 384.181 447.973C394.116 441.797 394.494 429.366 384.898 424.404C383.384 423.621 377.809 422.114 372.509 421.054C361.548 418.863 357.828 416.932 357.828 413.434C357.828 406.908 369.251 403.407 381.544 406.164C385.269 407 388.657 407.474 389.073 407.217C389.488 406.96 389.828 405.673 389.828 404.356C389.828 402.445 389.072 401.749 386.078 400.903C380.922 399.447 368.967 398.777 365.328 399.74ZM444.307 400.262C438.272 402.153 435.037 404.657 432.037 409.76C429.604 413.899 429.328 415.338 429.328 423.889C429.328 436.061 431.853 441.751 439.3 446.359C443.684 449.072 445.127 449.402 453.959 449.711C466.243 450.14 472.215 448.396 477.145 442.939C481.578 438.032 483.206 433.067 483.243 424.344C483.295 412.06 478.31 403.713 468.949 400.411C463.668 398.547 450.041 398.465 444.307 400.262ZM498.061 423.618L498.328 448.368H501.303H504.279L503.959 428.173L503.64 407.977L523.931 428.423C535.378 439.957 545.007 448.868 546.025 448.868C547.714 448.868 547.828 447.292 547.828 423.868V398.868H544.828H541.828V418.595V438.322L522.745 418.595C506.475 401.776 503.229 398.868 500.727 398.868H497.793L498.061 423.618ZM310.748 402.192C300.785 407.46 299.724 419.225 308.795 423.851C310.738 424.841 316.771 426.614 322.2 427.79C333.921 430.329 335.601 431.117 336.443 434.471C337.371 438.166 335.541 441.302 331.277 443.325C326.421 445.63 312.031 445.127 306.985 442.477C303.21 440.493 303.328 440.455 302.493 443.944C301.964 446.158 302.366 446.754 305.343 448.174C313.993 452.299 328.074 452.244 335.242 448.058C345.124 442.287 345.274 429.149 335.507 424.856C333.209 423.846 327.609 422.318 323.064 421.462C318.518 420.605 313.429 419.196 311.754 418.33C309.194 417.006 308.759 416.252 309.019 413.594C309.51 408.571 314.413 405.868 323.033 405.868C326.833 405.868 331.987 406.383 334.487 407.012C338.204 407.948 339.195 407.903 339.929 406.762C342.687 402.474 336.96 400.063 323.735 399.945C316.576 399.881 314.409 400.256 310.748 402.192ZM406.168 415.618C406.527 424.281 406.823 435.531 406.825 440.618L406.828 449.868H409.828H412.828V424.868V399.868H409.171H405.515L406.168 415.618ZM144.546 401.896C138.945 403.309 135.49 405.35 132.031 409.29C128.297 413.542 126.841 418.347 126.834 426.436C126.818 443.737 136.074 452.868 153.627 452.868C166.376 452.868 174.059 449.059 178.242 440.665C180.388 436.359 180.828 434.087 180.828 427.321C180.828 414.436 177.606 407.875 169.304 403.857C164.093 401.334 150.911 400.29 144.546 401.896ZM196.495 401.535C196.128 401.901 195.828 413.151 195.828 426.535V450.868H199.328H202.828V439.868V428.868H217.328H231.828V425.868V422.868H217.407H202.986L202.657 415.366L202.328 407.863L219.578 407.866L236.828 407.868V404.368V400.868H216.995C206.086 400.868 196.861 401.168 196.495 401.535ZM249.828 425.888V450.908L271.078 450.638L292.328 450.368L292.644 447.618L292.961 444.868H274.394H255.828V436.395V427.921L270.578 427.645L285.328 427.368L285.644 424.618L285.961 421.868H270.894H255.828V414.368V406.868H273.328H290.828V403.868V400.868H270.328H249.828V425.888ZM76.0611 402.593L72.7931 402.997L73.0611 427.683L73.3281 452.368L76.5781 452.681L79.8281 452.995V442.431V431.868H88.1831H96.5381L104.734 442.368C111.775 451.388 113.338 452.868 115.82 452.868C117.41 452.868 118.93 452.511 119.2 452.076C119.469 451.64 115.712 446.507 110.85 440.67L102.011 430.056L105.343 429.431C107.386 429.048 109.866 427.45 111.752 425.302C114.373 422.317 114.828 421.001 114.828 416.41C114.828 405.807 107.633 401.738 89.3961 402.028C83.8591 402.116 77.8581 402.37 76.0611 402.593ZM15.8281 427.868V452.868H19.3281H22.8281V444.021V435.173L35.0131 434.561C44.9571 434.061 48.0151 433.527 51.6451 431.658C64.0511 425.27 61.9441 407.681 48.3281 403.969C46.1281 403.37 37.9161 402.877 30.0781 402.874L15.8281 402.868V427.868ZM595.152 417.118L601.808 429.868H588.247H574.686L581.436 416.88C585.148 409.736 588.255 403.999 588.34 404.13C588.426 404.261 591.491 410.105 595.152 417.118ZM466.513 405.932C473.825 408.694 477.622 416.885 476.524 427.526C475.78 434.738 473.232 438.876 467.805 441.687C463.916 443.702 462.203 443.959 454.772 443.639C440.463 443.023 435.804 438.211 435.85 424.098C435.896 410.067 441.286 404.932 456.013 404.89C460.24 404.878 464.965 405.347 466.513 405.932ZM166.172 409.238C168.159 410.068 170.672 412.208 171.757 413.992C176.229 421.345 175.287 436.203 170.04 441.095C165.591 445.243 162.978 446.078 154.324 446.118C144.982 446.161 139.858 444.283 136.393 439.546C133.457 435.534 132.922 420.911 135.53 415.939C137.679 411.841 141.346 408.98 145.951 407.807C150.605 406.622 161.807 407.415 166.172 409.238ZM103.28 409.283C109.196 411.755 110.599 417.695 106.417 422.562C104.06 425.305 103.736 425.375 91.9931 425.7L79.9801 426.032L79.6541 417.362C79.4751 412.594 79.5161 408.507 79.7451 408.28C80.8681 407.169 100.192 407.993 103.28 409.283ZM48.8631 410.386C52.1291 412.075 53.1241 414.697 52.6481 420.364C52.1031 426.851 48.9871 428.304 34.7591 428.702L22.8281 429.035V418.952V408.868H34.3781C42.7501 408.868 46.7351 409.286 48.8631 410.386Z" fill="#DF003D"/>
</svg>
