<svg width="209" height="42" viewBox="0 0 209 42" fill="none" xmlns="http://www.w3.org/2000/svg">
<g clip-path="url(#clip0_3_17)">
<path d="M65.0908 21.1323H46.036H43.6218H24.5788H22.1645H0.707275V22.0509H22.1645H24.5788H43.6218H46.036H65.0908H67.4933H88.9623V21.1323H67.4933H65.0908Z" fill="#155159" stroke="none" stroke-width="0.153804" stroke-miterlimit="10" stroke-linecap="round" stroke-linejoin="round"/>
<path d="M186.307 21.1323H183.834H164.32H161.847H142.333H139.86H117.872V22.0509H139.86H142.333H161.847H164.32H183.834H186.307H208.294V21.1323H186.307Z" fill="#155159" stroke="none" stroke-width="0.155677" stroke-miterlimit="10" stroke-linecap="round" stroke-linejoin="round"/>
<path d="M111.858 12.7938C113.495 13.5005 115.603 12.2521 116.581 10.0145C117.546 7.76517 117.005 5.37449 115.38 4.66788C113.754 3.96128 111.634 5.20961 110.669 7.4472C109.68 9.68478 110.221 12.0872 111.858 12.7938ZM111.057 7.62385C111.894 5.68068 113.719 4.59722 115.132 5.20961C116.545 5.822 117.016 7.89471 116.169 9.83787C115.332 11.781 113.507 12.8645 112.094 12.2521C110.681 11.6279 110.21 9.56701 111.057 7.62385Z" fill="#155159" stroke="none" stroke-width="0.117768" stroke-miterlimit="10"/>
<path d="M115.036 4.00818C115.036 4.00818 115.861 3.61955 116.332 2.70096C117.121 1.16998 116.779 0.0865183 117.026 0.00408099C117.227 -0.0548028 117.474 0.522261 117.309 1.8177C117.168 2.90117 116.249 4.54991 116.249 4.54991L115.036 4.47925V4.00818Z" fill="#155159" stroke="none" stroke-width="0.117768" stroke-miterlimit="10"/>
<path d="M89.4562 10.226C90.5279 12.7109 92.9892 14.0299 94.9559 13.182C95.1443 13.0995 95.3092 13.0053 95.4741 12.8993C96.4633 12.2163 96.0983 12.4283 97.2171 13.8886C97.429 14.1712 99.0895 16.7032 101.327 20.1303L90.3277 41.7877C90.3277 41.7877 90.2688 41.9997 90.5396 41.9997C90.7987 41.9997 90.8929 41.7995 90.8929 41.7877C91.2462 41.1871 98.0061 31.0473 103.282 23.1451C108.217 30.7529 114.482 40.4805 115.235 41.7877C115.235 41.7877 115.341 41.9997 115.612 41.9997C115.848 41.9997 115.801 41.7877 115.801 41.7877L105.272 20.142C107.734 16.4559 109.512 13.7944 109.512 13.7944C110.631 12.3341 110.219 12.2045 111.208 12.8876C111.373 12.9936 111.549 13.0878 111.726 13.1702C113.104 13.7708 114.729 13.288 115.942 12.0985C116.284 11.757 116.602 11.3566 116.861 10.9208C116.99 10.6971 117.108 10.4616 117.226 10.2142C117.65 9.22499 117.803 8.18864 117.685 7.25828C117.661 7.05807 117.626 6.86964 117.579 6.68121C117.532 6.49279 117.485 6.30436 117.402 6.1277C117.332 5.95105 117.261 5.78618 117.167 5.62131C117.037 5.37399 116.872 5.15024 116.696 4.96181C116.637 4.90293 116.566 4.83226 116.507 4.77338C116.248 4.52607 115.942 4.32586 115.612 4.18454C115.106 3.96078 114.564 3.89012 114.034 3.949C113.975 3.949 113.905 3.96078 113.846 3.97256C113.799 3.97256 113.752 3.98434 113.705 3.99611C113.622 4.00789 113.528 4.03145 113.457 4.055C112.633 4.27876 111.844 4.77338 111.184 5.49176C111.114 5.56242 111.055 5.63308 110.996 5.71552C110.937 5.7744 110.89 5.84507 110.843 5.90395C110.796 5.96283 110.76 6.00994 110.725 6.06882C110.701 6.09237 110.69 6.11593 110.666 6.15126C110.607 6.2337 110.56 6.30436 110.513 6.38679C110.454 6.48101 110.383 6.587 110.336 6.70477L108.994 9.00124L105.425 15.078L104.731 15.3136L103.93 15.5844C103.706 15.6551 103.518 15.82 103.423 16.032L103.353 16.1615L103.282 16.032C103.176 15.82 102.999 15.6551 102.776 15.5844L101.268 15.0898L97.6999 9.00124C97.5939 8.82458 97.5703 8.6126 97.6175 8.4124L97.7352 7.92955C97.7706 7.76467 97.747 7.5998 97.6646 7.4467L97.641 7.41137C97.535 7.23472 97.3466 7.11695 97.1464 7.10517L96.9697 7.0934C96.7106 7.06985 96.4751 6.92853 96.3456 6.70477C95.1797 4.51429 92.9068 3.3955 91.0578 4.18454C89.1029 5.04424 88.3845 7.74112 89.4562 10.226ZM110.643 9.34276V9.31921C110.654 9.17789 110.666 9.03657 110.69 8.88347L110.701 8.80103C110.725 8.65971 110.76 8.50661 110.796 8.35351C110.855 8.1062 110.949 7.85889 111.055 7.61158C111.891 5.66842 113.716 4.58495 115.129 5.19735C115.247 5.24445 115.353 5.30334 115.459 5.374C115.565 5.44466 115.659 5.52709 115.754 5.60953C115.848 5.69197 115.93 5.78618 116.001 5.89217C116.425 6.45745 116.625 7.23472 116.578 8.09442C116.578 8.1062 116.578 8.1062 116.578 8.11798C116.566 8.27108 116.554 8.42417 116.531 8.57727C116.507 8.74214 116.472 8.90702 116.425 9.06012C116.366 9.30743 116.272 9.55474 116.166 9.80205C115.33 11.7452 113.504 12.8287 112.091 12.2163C111.738 12.0632 111.443 11.8277 111.22 11.5097C111.078 11.3213 110.972 11.0857 110.878 10.8502C110.701 10.4262 110.607 9.89626 110.643 9.34276ZM103.376 19.2706C103.718 19.2706 104 19.5532 104 19.8947C104 20.2363 103.718 20.5189 103.376 20.5189C103.035 20.5189 102.752 20.2363 102.752 19.8947C102.752 19.5414 103.035 19.2706 103.376 19.2706ZM90.469 6.29258C90.7163 5.80974 91.0931 5.4211 91.576 5.20912C92.2473 4.92648 93.001 5.00891 93.7076 5.38577C94.4966 5.80973 95.215 6.59878 95.6507 7.61158C96.4869 9.55474 96.0276 11.6275 94.6144 12.2398C93.2012 12.8522 91.3758 11.7688 90.5396 9.82561C89.9861 8.55372 89.9979 7.22295 90.469 6.29258Z" fill="#155159" stroke="none" stroke-width="0.117768" stroke-miterlimit="10"/>
</g>
<defs>
<clipPath id="clip0_3_17">
<rect width="207.587" height="42" fill="white" transform="translate(0.706299)"/>
</clipPath>
</defs>
</svg>
